SplineFontDB: 3.2
FontName: LibreDotMatrixVideo
FullName: Libre Dot Matrix Video
FamilyName: Libre Dot Matrix Video
Weight: Regular
Copyright: Copyright 2022 The Libre Dot Matrix Project Authors (https://github.com/FriedOrange/LibreDotMatrix)
Version: 0.211
ItalicAngle: 0
UnderlinePosition: -100
UnderlineWidth: 100
Ascent: 800
Descent: 200
InvalidEm: 0
LayerCount: 2
Layer: 0 0 "Back" 1
Layer: 1 0 "Fore" 0
XUID: [1021 655 -629464056 810]
StyleMap: 0x0000
FSType: 0
OS2Version: 0
OS2_WeightWidthSlopeOnly: 0
OS2_UseTypoMetrics: 1
CreationTime: 1657964544
ModificationTime: 1659253854
PfmFamily: 81
TTFWeight: 400
TTFWidth: 5
LineGap: 0
VLineGap: 90
Panose: 4 1 6 4 2 11 2 2 3 2
OS2TypoAscent: 1000
OS2TypoAOffset: 0
OS2TypoDescent: -200
OS2TypoDOffset: 0
OS2TypoLinegap: 0
OS2WinAscent: 1100
OS2WinAOffset: 0
OS2WinDescent: 200
OS2WinDOffset: 0
HheadAscent: 1000
HheadAOffset: 0
HheadDescent: -200
HheadDOffset: 0
OS2SubXSize: 714
OS2SubYSize: 714
OS2SubXOff: 0
OS2SubYOff: 100
OS2SupXSize: 714
OS2SupYSize: 714
OS2SupXOff: 0
OS2SupYOff: 300
OS2StrikeYSize: 100
OS2StrikeYPos: 300
OS2CapHeight: 700
OS2XHeight: 500
OS2FamilyClass: 2058
OS2Vendor: 'PfEd'
MarkAttachClasses: 1
DEI: 91125
LangName: 1033 "" "" "" "" "" "" "" "" "" "Brad Neil" "" "" "http://friedorange.xyz/" "This Font Software is licensed under the SIL Open Font License, Version 1.1. This license is available with a FAQ at: https://scripts.sil.org/OFL" "https://scripts.sil.org/OFL" "" "Libre Dot Matrix" "Video" "" "" "" "Libre Dot Matrix Video" "Regular"
Encoding: UnicodeFull
UnicodeInterp: none
NameList: AGL For New Fonts
DisplaySize: -48
AntiAlias: 1
FitToEm: 1
WinInfo: 32 16 13
BeginPrivate: 0
EndPrivate
TeXData: 1 0 0 629146 314573 209715 524288 1048576 0 783286 444596 497025 792723 393216 433062 380633 303038 157286 324010 404750 52429 2506097 1059062 262144
AnchorClass2: "marks_above"""  "marks_below"""  "ogonek"""  "marks_aboveright""" 
BeginChars: 1114122 386

StartChar: exclam
Encoding: 33 33 1
Width: 200
Flags: HMW
LayerCount: 2
Fore
SplineSet
50 0 m 1
 50 100 l 1
 150 100 l 1
 150 0 l 1
 50 0 l 1
50 200 m 1
 50 700 l 1
 150 700 l 1
 150 200 l 1
 50 200 l 1
EndSplineSet
EndChar

StartChar: quotedbl
Encoding: 34 34 2
Width: 400
Flags: HMW
LayerCount: 2
Fore
SplineSet
250 400 m 1
 250 700 l 1
 350 700 l 1
 350 400 l 1
 250 400 l 1
50 400 m 1
 50 700 l 1
 150 700 l 1
 150 400 l 1
 50 400 l 1
EndSplineSet
EndChar

StartChar: numbersign
Encoding: 35 35 3
Width: 600
Flags: HMW
LayerCount: 2
Fore
SplineSet
50 200 m 1
 50 300 l 1
 150 300 l 1
 150 400 l 1
 50 400 l 1
 50 500 l 1
 150 500 l 1
 150 700 l 1
 250 700 l 1
 250 500 l 1
 350 500 l 1
 350 700 l 1
 450 700 l 1
 450 500 l 1
 550 500 l 1
 550 400 l 1
 450 400 l 1
 450 300 l 1
 550 300 l 1
 550 200 l 1
 450 200 l 1
 450 0 l 1
 350 0 l 1
 350 200 l 1
 250 200 l 1
 250 0 l 1
 150 0 l 1
 150 200 l 1
 50 200 l 1
350 300 m 1
 350 400 l 1
 250 400 l 1
 250 300 l 1
 350 300 l 1
EndSplineSet
EndChar

StartChar: dollar
Encoding: 36 36 4
Width: 600
Flags: HMW
LayerCount: 2
Fore
SplineSet
50 100 m 1
 50 200 l 1
 250 200 l 1
 250 300 l 1
 150 300 l 1
 150 350 l 1
 100 350 l 1
 100 400 l 1
 50 400 l 1
 50 500 l 1
 100 500 l 1
 100 550 l 1
 150 550 l 1
 150 600 l 1
 250 600 l 1
 250 700 l 1
 350 700 l 1
 350 600 l 1
 550 600 l 1
 550 500 l 1
 350 500 l 1
 350 400 l 1
 450 400 l 1
 450 350 l 1
 500 350 l 1
 500 300 l 1
 550 300 l 1
 550 200 l 1
 500 200 l 1
 500 150 l 1
 450 150 l 1
 450 100 l 1
 350 100 l 1
 350 0 l 1
 250 0 l 1
 250 100 l 1
 50 100 l 1
350 200 m 1
 400 200 l 1
 400 300 l 1
 350 300 l 1
 350 200 l 1
250 400 m 1
 250 500 l 1
 200 500 l 1
 200 400 l 1
 250 400 l 1
EndSplineSet
EndChar

StartChar: percent
Encoding: 37 37 5
Width: 600
Flags: HMW
LayerCount: 2
Fore
SplineSet
50 100 m 1
 50 200 l 1
 100 200 l 1
 100 250 l 1
 150 250 l 1
 150 300 l 1
 200 300 l 1
 200 350 l 1
 250 350 l 1
 250 400 l 1
 300 400 l 1
 300 450 l 1
 350 450 l 1
 350 500 l 1
 400 500 l 1
 400 550 l 1
 450 550 l 1
 450 600 l 1
 550 600 l 1
 550 500 l 1
 500 500 l 1
 500 450 l 1
 450 450 l 1
 450 400 l 1
 400 400 l 1
 400 350 l 1
 350 350 l 1
 350 300 l 1
 300 300 l 1
 300 250 l 1
 250 250 l 1
 250 200 l 1
 200 200 l 1
 200 150 l 1
 150 150 l 1
 150 100 l 1
 50 100 l 1
550 0 m 1
 350 0 l 1
 350 200 l 1
 550 200 l 1
 550 0 l 1
250 500 m 1
 50 500 l 1
 50 700 l 1
 250 700 l 1
 250 500 l 1
EndSplineSet
EndChar

StartChar: ampersand
Encoding: 38 38 6
Width: 600
Flags: HMW
LayerCount: 2
Fore
SplineSet
350 0 m 1
 150 0 l 1
 150 50 l 1
 100 50 l 1
 100 100 l 1
 50 100 l 1
 50 300 l 1
 100 300 l 1
 100 400 l 1
 50 400 l 1
 50 600 l 1
 100 600 l 1
 100 650 l 1
 150 650 l 1
 150 700 l 1
 250 700 l 1
 250 650 l 1
 300 650 l 1
 300 600 l 1
 350 600 l 1
 350 400 l 1
 300 400 l 1
 300 300 l 1
 350 300 l 1
 350 250 l 1
 450 250 l 1
 450 300 l 1
 550 300 l 1
 550 200 l 1
 500 200 l 1
 500 100 l 1
 550 100 l 1
 550 0 l 1
 450 0 l 1
 450 50 l 1
 350 50 l 1
 350 0 l 1
200 100 m 1
 300 100 l 1
 300 200 l 1
 250 200 l 1
 250 250 l 1
 150 250 l 1
 150 150 l 1
 200 150 l 1
 200 100 l 1
250 450 m 1
 250 550 l 1
 150 550 l 1
 150 450 l 1
 250 450 l 1
EndSplineSet
EndChar

StartChar: quotesingle
Encoding: 39 39 7
Width: 200
Flags: HMW
LayerCount: 2
Fore
SplineSet
50 400 m 1
 50 700 l 1
 150 700 l 1
 150 400 l 1
 50 400 l 1
EndSplineSet
EndChar

StartChar: parenleft
Encoding: 40 40 8
Width: 400
Flags: HMW
LayerCount: 2
Fore
SplineSet
50 200 m 1
 50 500 l 1
 100 500 l 1
 100 550 l 1
 150 550 l 1
 150 600 l 1
 200 600 l 1
 200 650 l 1
 250 650 l 1
 250 700 l 1
 350 700 l 1
 350 600 l 1
 300 600 l 1
 300 550 l 1
 250 550 l 1
 250 500 l 1
 200 500 l 1
 200 450 l 1
 150 450 l 1
 150 250 l 1
 200 250 l 1
 200 200 l 1
 250 200 l 1
 250 150 l 1
 300 150 l 1
 300 100 l 1
 350 100 l 1
 350 0 l 1
 250 0 l 1
 250 50 l 1
 200 50 l 1
 200 100 l 1
 150 100 l 1
 150 150 l 1
 100 150 l 1
 100 200 l 1
 50 200 l 1
EndSplineSet
EndChar

StartChar: parenright
Encoding: 41 41 9
Width: 400
Flags: HMW
LayerCount: 2
Fore
SplineSet
50 0 m 1
 50 100 l 1
 100 100 l 1
 100 150 l 1
 150 150 l 1
 150 200 l 1
 200 200 l 1
 200 250 l 1
 250 250 l 1
 250 450 l 1
 200 450 l 1
 200 500 l 1
 150 500 l 1
 150 550 l 1
 100 550 l 1
 100 600 l 1
 50 600 l 1
 50 700 l 1
 150 700 l 1
 150 650 l 1
 200 650 l 1
 200 600 l 1
 250 600 l 1
 250 550 l 1
 300 550 l 1
 300 500 l 1
 350 500 l 1
 350 200 l 1
 300 200 l 1
 300 150 l 1
 250 150 l 1
 250 100 l 1
 200 100 l 1
 200 50 l 1
 150 50 l 1
 150 0 l 1
 50 0 l 1
EndSplineSet
EndChar

StartChar: asterisk
Encoding: 42 42 10
Width: 600
Flags: HMW
LayerCount: 2
Fore
SplineSet
50 200 m 1
 50 300 l 1
 100 300 l 1
 100 400 l 1
 50 400 l 1
 50 500 l 1
 150 500 l 1
 150 450 l 1
 200 450 l 1
 200 400 l 1
 250 400 l 1
 250 600 l 1
 350 600 l 1
 350 400 l 1
 400 400 l 1
 400 450 l 1
 450 450 l 1
 450 500 l 1
 550 500 l 1
 550 400 l 1
 500 400 l 1
 500 300 l 1
 550 300 l 1
 550 200 l 1
 450 200 l 1
 450 250 l 1
 400 250 l 1
 400 300 l 1
 350 300 l 1
 350 100 l 1
 250 100 l 1
 250 300 l 1
 200 300 l 1
 200 250 l 1
 150 250 l 1
 150 200 l 1
 50 200 l 1
EndSplineSet
EndChar

StartChar: plus
Encoding: 43 43 11
Width: 600
Flags: HMW
LayerCount: 2
Fore
SplineSet
50 300 m 1
 50 400 l 1
 250 400 l 1
 250 600 l 1
 350 600 l 1
 350 400 l 1
 550 400 l 1
 550 300 l 1
 350 300 l 1
 350 100 l 1
 250 100 l 1
 250 300 l 1
 50 300 l 1
EndSplineSet
EndChar

StartChar: comma
Encoding: 44 44 12
Width: 300
Flags: HMW
LayerCount: 2
Fore
SplineSet
50 -100 m 1
 50 0 l 1
 100 0 l 1
 100 50 l 1
 150 50 l 1
 150 200 l 1
 250 200 l 1
 250 0 l 1
 200 -0 l 1
 200 -50 l 1
 150 -50 l 1
 150 -100 l 1
 50 -100 l 1
EndSplineSet
EndChar

StartChar: hyphen
Encoding: 45 45 13
Width: 500
Flags: HMW
LayerCount: 2
Fore
SplineSet
50 300 m 1
 50 400 l 1
 450 400 l 1
 450 300 l 1
 50 300 l 1
EndSplineSet
EndChar

StartChar: period
Encoding: 46 46 14
Width: 200
Flags: HMW
LayerCount: 2
Fore
SplineSet
50 0 m 1
 50 100 l 1
 150 100 l 1
 150 0 l 1
 50 0 l 1
EndSplineSet
EndChar

StartChar: slash
Encoding: 47 47 15
Width: 600
Flags: HMW
LayerCount: 2
Fore
SplineSet
50 100 m 1
 50 200 l 1
 100 200 l 1
 100 250 l 1
 150 250 l 1
 150 300 l 1
 200 300 l 1
 200 350 l 1
 250 350 l 1
 250 400 l 1
 300 400 l 1
 300 450 l 1
 350 450 l 1
 350 500 l 1
 400 500 l 1
 400 550 l 1
 450 550 l 1
 450 600 l 1
 550 600 l 1
 550 500 l 1
 500 500 l 1
 500 450 l 1
 450 450 l 1
 450 400 l 1
 400 400 l 1
 400 350 l 1
 350 350 l 1
 350 300 l 1
 300 300 l 1
 300 250 l 1
 250 250 l 1
 250 200 l 1
 200 200 l 1
 200 150 l 1
 150 150 l 1
 150 100 l 1
 50 100 l 1
EndSplineSet
EndChar

StartChar: zero
Encoding: 48 48 16
Width: 600
Flags: HMW
LayerCount: 2
Fore
SplineSet
450 0 m 1
 150 0 l 1
 150 50 l 1
 100 50 l 1
 100 100 l 1
 50 100 l 1
 50 600 l 1
 100 600 l 1
 100 650 l 1
 150 650 l 1
 150 700 l 1
 450 700 l 1
 450 650 l 1
 500 650 l 1
 500 600 l 1
 550 600 l 1
 550 100 l 1
 500 100 l 1
 500 50 l 1
 450 50 l 1
 450 0 l 1
200 100 m 1
 400 100 l 1
 400 150 l 1
 450 150 l 1
 450 400 l 1
 400 400 l 1
 400 350 l 1
 350 350 l 1
 350 300 l 1
 300 300 l 1
 300 250 l 1
 250 250 l 1
 250 200 l 1
 150 200 l 1
 150 150 l 1
 200 150 l 1
 200 100 l 1
150 300 m 1
 200 300 l 1
 200 350 l 1
 250 350 l 1
 250 400 l 1
 300 400 l 1
 300 450 l 1
 350 450 l 1
 350 500 l 1
 450 500 l 1
 450 550 l 1
 400 550 l 1
 400 600 l 1
 200 600 l 1
 200 550 l 1
 150 550 l 1
 150 300 l 1
EndSplineSet
EndChar

StartChar: one
Encoding: 49 49 17
Width: 400
Flags: HMW
LayerCount: 2
Fore
SplineSet
50 0 m 1
 50 100 l 1
 150 100 l 1
 150 500 l 1
 50 500 l 1
 50 600 l 1
 150 600 l 1
 150 700 l 1
 250 700 l 1
 250 100 l 1
 350 100 l 1
 350 0 l 1
 50 0 l 1
EndSplineSet
EndChar

StartChar: two
Encoding: 50 50 18
Width: 600
Flags: HMW
LayerCount: 2
Fore
SplineSet
50 500 m 1
 50 600 l 1
 100 600 l 1
 100 650 l 1
 150 650 l 1
 150 700 l 1
 450 700 l 1
 450 650 l 1
 500 650 l 1
 500 600 l 1
 550 600 l 1
 550 400 l 1
 500 400 l 1
 500 350 l 1
 450 350 l 1
 450 300 l 1
 300 300 l 1
 300 250 l 1
 250 250 l 1
 250 200 l 1
 200 200 l 1
 200 150 l 1
 150 150 l 1
 150 100 l 1
 550 100 l 1
 550 0 l 1
 50 0 l 1
 50 200 l 1
 100 200 l 1
 100 250 l 1
 150 250 l 1
 150 300 l 1
 200 300 l 1
 200 350 l 1
 250 350 l 1
 250 400 l 1
 400 400 l 1
 400 450 l 1
 450 450 l 1
 450 550 l 1
 400 550 l 1
 400 600 l 1
 200 600 l 1
 200 550 l 1
 150 550 l 1
 150 500 l 1
 50 500 l 1
EndSplineSet
EndChar

StartChar: three
Encoding: 51 51 19
Width: 600
Flags: HMW
LayerCount: 2
Fore
SplineSet
50 100 m 1
 50 200 l 1
 150 200 l 1
 150 150 l 1
 200 150 l 1
 200 100 l 1
 400 100 l 1
 400 150 l 1
 450 150 l 1
 450 250 l 1
 400 250 l 1
 400 300 l 1
 250 300 l 1
 250 400 l 1
 400 400 l 1
 400 450 l 1
 450 450 l 1
 450 550 l 1
 400 550 l 1
 400 600 l 1
 200 600 l 1
 200 550 l 1
 150 550 l 1
 150 500 l 1
 50 500 l 1
 50 600 l 1
 100 600 l 1
 100 650 l 1
 150 650 l 1
 150 700 l 1
 450 700 l 1
 450 650 l 1
 500 650 l 1
 500 600 l 1
 550 600 l 1
 550 400 l 1
 500 400 l 1
 500 300 l 1
 550 300 l 1
 550 100 l 1
 500 100 l 1
 500 50 l 1
 450 50 l 1
 450 0 l 1
 150 0 l 1
 150 50 l 1
 100 50 l 1
 100 100 l 1
 50 100 l 1
EndSplineSet
EndChar

StartChar: four
Encoding: 52 52 20
Width: 600
Flags: HMW
LayerCount: 2
Fore
SplineSet
350 0 m 1
 350 200 l 1
 50 200 l 1
 50 400 l 1
 100 400 l 1
 100 450 l 1
 150 450 l 1
 150 500 l 1
 200 500 l 1
 200 550 l 1
 250 550 l 1
 250 600 l 1
 300 600 l 1
 300 650 l 1
 350 650 l 1
 350 700 l 1
 450 700 l 1
 450 300 l 1
 550 300 l 1
 550 200 l 1
 450 200 l 1
 450 0 l 1
 350 0 l 1
150 300 m 1
 350 300 l 1
 350 500 l 1
 300 500 l 1
 300 450 l 1
 250 450 l 1
 250 400 l 1
 200 400 l 1
 200 350 l 1
 150 350 l 1
 150 300 l 1
EndSplineSet
EndChar

StartChar: five
Encoding: 53 53 21
Width: 600
Flags: HMW
LayerCount: 2
Fore
SplineSet
50 100 m 1
 50 200 l 1
 150 200 l 1
 150 150 l 1
 200 150 l 1
 200 100 l 1
 400 100 l 1
 400 150 l 1
 450 150 l 1
 450 350 l 1
 400 350 l 1
 400 400 l 1
 50 400 l 1
 50 700 l 1
 550 700 l 1
 550 600 l 1
 150 600 l 1
 150 500 l 1
 450 500 l 1
 450 450 l 1
 500 450 l 1
 500 400 l 1
 550 400 l 1
 550 100 l 1
 500 100 l 1
 500 50 l 1
 450 50 l 1
 450 0 l 1
 150 0 l 1
 150 50 l 1
 100 50 l 1
 100 100 l 1
 50 100 l 1
EndSplineSet
EndChar

StartChar: six
Encoding: 54 54 22
Width: 600
Flags: HMW
LayerCount: 2
Fore
SplineSet
450 0 m 1
 150 0 l 1
 150 50 l 1
 100 50 l 1
 100 100 l 1
 50 100 l 1
 50 500 l 1
 100 500 l 1
 100 550 l 1
 150 550 l 1
 150 600 l 1
 200 600 l 1
 200 650 l 1
 250 650 l 1
 250 700 l 1
 450 700 l 1
 450 600 l 1
 300 600 l 1
 300 550 l 1
 250 550 l 1
 250 500 l 1
 200 500 l 1
 200 450 l 1
 150 450 l 1
 150 400 l 1
 450 400 l 1
 450 350 l 1
 500 350 l 1
 500 300 l 1
 550 300 l 1
 550 100 l 1
 500 100 l 1
 500 50 l 1
 450 50 l 1
 450 0 l 1
200 100 m 1
 400 100 l 1
 400 150 l 1
 450 150 l 1
 450 250 l 1
 400 250 l 1
 400 300 l 1
 150 300 l 1
 150 150 l 1
 200 150 l 1
 200 100 l 1
EndSplineSet
EndChar

StartChar: seven
Encoding: 55 55 23
Width: 600
Flags: HMW
LayerCount: 2
Fore
SplineSet
50 600 m 1
 50 700 l 1
 550 700 l 1
 550 500 l 1
 500 500 l 1
 500 450 l 1
 450 450 l 1
 450 400 l 1
 400 400 l 1
 400 350 l 1
 350 350 l 1
 350 300 l 1
 300 300 l 1
 300 250 l 1
 250 250 l 1
 250 0 l 1
 150 0 l 1
 150 300 l 1
 200 300 l 1
 200 350 l 1
 250 350 l 1
 250 400 l 1
 300 400 l 1
 300 450 l 1
 350 450 l 1
 350 500 l 1
 400 500 l 1
 400 550 l 1
 450 550 l 1
 450 600 l 1
 50 600 l 1
EndSplineSet
EndChar

StartChar: eight
Encoding: 56 56 24
Width: 600
Flags: HMW
LayerCount: 2
Fore
SplineSet
450 0 m 1
 150 0 l 1
 150 50 l 1
 100 50 l 1
 100 100 l 1
 50 100 l 1
 50 300 l 1
 100 300 l 1
 100 400 l 1
 50 400 l 1
 50 600 l 1
 100 600 l 1
 100 650 l 1
 150 650 l 1
 150 700 l 1
 450 700 l 1
 450 650 l 1
 500 650 l 1
 500 600 l 1
 550 600 l 1
 550 400 l 1
 500 400 l 1
 500 300 l 1
 550 300 l 1
 550 100 l 1
 500 100 l 1
 500 50 l 1
 450 50 l 1
 450 0 l 1
200 100 m 1
 400 100 l 1
 400 150 l 1
 450 150 l 1
 450 250 l 1
 400 250 l 1
 400 300 l 1
 200 300 l 1
 200 250 l 1
 150 250 l 1
 150 150 l 1
 200 150 l 1
 200 100 l 1
200 400 m 1
 400 400 l 1
 400 450 l 1
 450 450 l 1
 450 550 l 1
 400 550 l 1
 400 600 l 1
 200 600 l 1
 200 550 l 1
 150 550 l 1
 150 450 l 1
 200 450 l 1
 200 400 l 1
EndSplineSet
EndChar

StartChar: nine
Encoding: 57 57 25
Width: 600
Flags: HMW
LayerCount: 2
Fore
SplineSet
150 0 m 1
 150 100 l 1
 300 100 l 1
 300 150 l 1
 350 150 l 1
 350 200 l 1
 400 200 l 1
 400 250 l 1
 450 250 l 1
 450 300 l 1
 150 300 l 1
 150 350 l 1
 100 350 l 1
 100 400 l 1
 50 400 l 1
 50 600 l 1
 100 600 l 1
 100 650 l 1
 150 650 l 1
 150 700 l 1
 450 700 l 1
 450 650 l 1
 500 650 l 1
 500 600 l 1
 550 600 l 1
 550 200 l 1
 500 200 l 1
 500 150 l 1
 450 150 l 1
 450 100 l 1
 400 100 l 1
 400 50 l 1
 350 50 l 1
 350 0 l 1
 150 0 l 1
200 400 m 1
 450 400 l 1
 450 550 l 1
 400 550 l 1
 400 600 l 1
 200 600 l 1
 200 550 l 1
 150 550 l 1
 150 450 l 1
 200 450 l 1
 200 400 l 1
EndSplineSet
EndChar

StartChar: colon
Encoding: 58 58 26
Width: 200
Flags: HMW
LayerCount: 2
Fore
SplineSet
50 0 m 1
 50 100 l 1
 150 100 l 1
 150 0 l 1
 50 0 l 1
50 400 m 1
 50 500 l 1
 150 500 l 1
 150 400 l 1
 50 400 l 1
EndSplineSet
EndChar

StartChar: semicolon
Encoding: 59 59 27
Width: 300
Flags: HMW
LayerCount: 2
Fore
SplineSet
50 -100 m 1
 50 0 l 1
 100 0 l 1
 100 50 l 1
 150 50 l 1
 150 200 l 1
 250 200 l 1
 250 0 l 1
 200 -0 l 1
 200 -50 l 1
 150 -50 l 1
 150 -100 l 1
 50 -100 l 1
150 400 m 1
 150 500 l 1
 250 500 l 1
 250 400 l 1
 150 400 l 1
EndSplineSet
EndChar

StartChar: less
Encoding: 60 60 28
Width: 400
Flags: HMW
LayerCount: 2
Fore
SplineSet
50 300 m 1
 50 400 l 1
 100 400 l 1
 100 450 l 1
 150 450 l 1
 150 500 l 1
 200 500 l 1
 200 550 l 1
 250 550 l 1
 250 600 l 1
 350 600 l 1
 350 500 l 1
 300 500 l 1
 300 450 l 1
 250 450 l 1
 250 400 l 1
 200 400 l 1
 200 300 l 1
 250 300 l 1
 250 250 l 1
 300 250 l 1
 300 200 l 1
 350 200 l 1
 350 100 l 1
 250 100 l 1
 250 150 l 1
 200 150 l 1
 200 200 l 1
 150 200 l 1
 150 250 l 1
 100 250 l 1
 100 300 l 1
 50 300 l 1
EndSplineSet
EndChar

StartChar: equal
Encoding: 61 61 29
Width: 600
Flags: HMW
LayerCount: 2
Fore
SplineSet
50 200 m 1
 50 300 l 1
 550 300 l 1
 550 200 l 1
 50 200 l 1
50 400 m 1
 50 500 l 1
 550 500 l 1
 550 400 l 1
 50 400 l 1
EndSplineSet
EndChar

StartChar: greater
Encoding: 62 62 30
Width: 400
Flags: HMW
LayerCount: 2
Fore
SplineSet
50 100 m 1
 50 200 l 1
 100 200 l 1
 100 250 l 1
 150 250 l 1
 150 300 l 1
 200 300 l 1
 200 400 l 1
 150 400 l 1
 150 450 l 1
 100 450 l 1
 100 500 l 1
 50 500 l 1
 50 600 l 1
 150 600 l 1
 150 550 l 1
 200 550 l 1
 200 500 l 1
 250 500 l 1
 250 450 l 1
 300 450 l 1
 300 400 l 1
 350 400 l 1
 350 300 l 1
 300 300 l 1
 300 250 l 1
 250 250 l 1
 250 200 l 1
 200 200 l 1
 200 150 l 1
 150 150 l 1
 150 100 l 1
 50 100 l 1
EndSplineSet
EndChar

StartChar: question
Encoding: 63 63 31
Width: 600
Flags: HMW
LayerCount: 2
Fore
SplineSet
250 0 m 1
 250 100 l 1
 350 100 l 1
 350 0 l 1
 250 0 l 1
50 500 m 1
 50 600 l 1
 100 600 l 1
 100 650 l 1
 150 650 l 1
 150 700 l 1
 450 700 l 1
 450 650 l 1
 500 650 l 1
 500 600 l 1
 550 600 l 1
 550 400 l 1
 500 400 l 1
 500 350 l 1
 450 350 l 1
 450 300 l 1
 350 300 l 1
 350 200 l 1
 250 200 l 1
 250 400 l 1
 400 400 l 1
 400 450 l 1
 450 450 l 1
 450 550 l 1
 400 550 l 1
 400 600 l 1
 200 600 l 1
 200 550 l 1
 150 550 l 1
 150 500 l 1
 50 500 l 1
EndSplineSet
EndChar

StartChar: at
Encoding: 64 64 32
Width: 600
Flags: HMW
LayerCount: 2
Fore
SplineSet
50 500 m 1
 50 600 l 1
 100 600 l 1
 100 650 l 1
 150 650 l 1
 150 700 l 1
 450 700 l 1
 450 650 l 1
 500 650 l 1
 500 600 l 1
 550 600 l 1
 550 100 l 1
 500 100 l 1
 500 50 l 1
 450 50 l 1
 450 0 l 1
 150 0 l 1
 150 50 l 1
 100 50 l 1
 100 100 l 1
 50 100 l 1
 50 300 l 1
 100 300 l 1
 100 350 l 1
 150 350 l 1
 150 400 l 1
 350 400 l 1
 350 100 l 1
 400 100 l 1
 400 150 l 1
 450 150 l 1
 450 550 l 1
 400 550 l 1
 400 600 l 1
 200 600 l 1
 200 550 l 1
 150 550 l 1
 150 500 l 1
 50 500 l 1
250 100 m 1
 250 300 l 1
 200 300 l 1
 200 250 l 1
 150 250 l 1
 150 150 l 1
 200 150 l 1
 200 100 l 1
 250 100 l 1
EndSplineSet
EndChar

StartChar: A
Encoding: 65 65 33
Width: 600
Flags: HMW
AnchorPoint: "ogonek" 400 0 basechar 0
AnchorPoint: "marks_below" 300 0 basechar 0
AnchorPoint: "marks_above" 300 800 basechar 0
LayerCount: 2
Fore
SplineSet
450 0 m 1
 450 200 l 1
 150 200 l 1
 150 0 l 1
 50 0 l 1
 50 500 l 1
 100 500 l 1
 100 550 l 1
 150 550 l 1
 150 600 l 1
 200 600 l 1
 200 650 l 1
 250 650 l 1
 250 700 l 1
 350 700 l 1
 350 650 l 1
 400 650 l 1
 400 600 l 1
 450 600 l 1
 450 550 l 1
 500 550 l 1
 500 500 l 1
 550 500 l 1
 550 0 l 1
 450 0 l 1
150 300 m 1
 450 300 l 1
 450 450 l 1
 400 450 l 1
 400 500 l 1
 350 500 l 1
 350 550 l 1
 250 550 l 1
 250 500 l 1
 200 500 l 1
 200 450 l 1
 150 450 l 1
 150 300 l 1
EndSplineSet
EndChar

StartChar: B
Encoding: 66 66 34
Width: 600
Flags: HMW
AnchorPoint: "marks_below" 300 0 basechar 0
AnchorPoint: "marks_above" 300 800 basechar 0
LayerCount: 2
Fore
SplineSet
450 0 m 1
 50 0 l 1
 50 700 l 1
 450 700 l 1
 450 650 l 1
 500 650 l 1
 500 600 l 1
 550 600 l 1
 550 400 l 1
 500 400 l 1
 500 300 l 1
 550 300 l 1
 550 100 l 1
 500 100 l 1
 500 50 l 1
 450 50 l 1
 450 0 l 1
150 100 m 1
 400 100 l 1
 400 150 l 1
 450 150 l 1
 450 250 l 1
 400 250 l 1
 400 300 l 1
 150 300 l 1
 150 100 l 1
150 400 m 1
 400 400 l 1
 400 450 l 1
 450 450 l 1
 450 550 l 1
 400 550 l 1
 400 600 l 1
 150 600 l 1
 150 400 l 1
EndSplineSet
EndChar

StartChar: C
Encoding: 67 67 35
Width: 600
Flags: HMW
AnchorPoint: "marks_below" 300 0 basechar 0
AnchorPoint: "marks_above" 300 800 basechar 0
LayerCount: 2
Fore
SplineSet
450 0 m 1
 150 0 l 1
 150 50 l 1
 100 50 l 1
 100 100 l 1
 50 100 l 1
 50 600 l 1
 100 600 l 1
 100 650 l 1
 150 650 l 1
 150 700 l 1
 450 700 l 1
 450 650 l 1
 500 650 l 1
 500 600 l 1
 550 600 l 1
 550 500 l 1
 450 500 l 1
 450 550 l 1
 400 550 l 1
 400 600 l 1
 200 600 l 1
 200 550 l 1
 150 550 l 1
 150 150 l 1
 200 150 l 1
 200 100 l 1
 400 100 l 1
 400 150 l 1
 450 150 l 1
 450 200 l 1
 550 200 l 1
 550 100 l 1
 500 100 l 1
 500 50 l 1
 450 50 l 1
 450 0 l 1
EndSplineSet
EndChar

StartChar: D
Encoding: 68 68 36
Width: 600
Flags: HMW
AnchorPoint: "marks_below" 300 0 basechar 0
AnchorPoint: "marks_above" 300 800 basechar 0
LayerCount: 2
Fore
SplineSet
350 0 m 1
 50 0 l 1
 50 700 l 1
 350 700 l 1
 350 650 l 1
 400 650 l 1
 400 600 l 1
 450 600 l 1
 450 550 l 1
 500 550 l 1
 500 500 l 1
 550 500 l 1
 550 200 l 1
 500 200 l 1
 500 150 l 1
 450 150 l 1
 450 100 l 1
 400 100 l 1
 400 50 l 1
 350 50 l 1
 350 0 l 1
150 100 m 1
 300 100 l 1
 300 150 l 1
 350 150 l 1
 350 200 l 1
 400 200 l 1
 400 250 l 1
 450 250 l 1
 450 450 l 1
 400 450 l 1
 400 500 l 1
 350 500 l 1
 350 550 l 1
 300 550 l 1
 300 600 l 1
 150 600 l 1
 150 100 l 1
EndSplineSet
EndChar

StartChar: E
Encoding: 69 69 37
Width: 600
Flags: HMW
AnchorPoint: "ogonek" 400 0 basechar 0
AnchorPoint: "marks_below" 300 0 basechar 0
AnchorPoint: "marks_above" 300 800 basechar 0
LayerCount: 2
Fore
SplineSet
550 0 m 1
 50 0 l 1
 50 700 l 1
 550 700 l 1
 550 600 l 1
 150 600 l 1
 150 400 l 1
 450 400 l 1
 450 300 l 1
 150 300 l 1
 150 100 l 1
 550 100 l 1
 550 0 l 1
EndSplineSet
EndChar

StartChar: F
Encoding: 70 70 38
Width: 600
Flags: HMW
AnchorPoint: "marks_below" 300 0 basechar 0
AnchorPoint: "marks_above" 300 800 basechar 0
LayerCount: 2
Fore
SplineSet
50 0 m 1
 50 700 l 1
 550 700 l 1
 550 600 l 1
 150 600 l 1
 150 400 l 1
 450 400 l 1
 450 300 l 1
 150 300 l 1
 150 0 l 1
 50 0 l 1
EndSplineSet
EndChar

StartChar: G
Encoding: 71 71 39
Width: 600
Flags: HMW
AnchorPoint: "marks_below" 300 0 basechar 0
AnchorPoint: "marks_above" 300 800 basechar 0
LayerCount: 2
Fore
SplineSet
350 300 m 1
 350 400 l 1
 550 400 l 1
 550 0 l 1
 150 0 l 1
 150 50 l 1
 100 50 l 1
 100 100 l 1
 50 100 l 1
 50 600 l 1
 100 600 l 1
 100 650 l 1
 150 650 l 1
 150 700 l 1
 450 700 l 1
 450 650 l 1
 500 650 l 1
 500 600 l 1
 550 600 l 1
 550 500 l 1
 450 500 l 1
 450 550 l 1
 400 550 l 1
 400 600 l 1
 200 600 l 1
 200 550 l 1
 150 550 l 1
 150 150 l 1
 200 150 l 1
 200 100 l 1
 450 100 l 1
 450 300 l 1
 350 300 l 1
EndSplineSet
EndChar

StartChar: H
Encoding: 72 72 40
Width: 600
Flags: HMW
AnchorPoint: "marks_below" 300 0 basechar 0
AnchorPoint: "marks_above" 300 800 basechar 0
LayerCount: 2
Fore
SplineSet
450 0 m 1
 450 300 l 1
 150 300 l 1
 150 0 l 1
 50 0 l 1
 50 700 l 1
 150 700 l 1
 150 400 l 1
 450 400 l 1
 450 700 l 1
 550 700 l 1
 550 0 l 1
 450 0 l 1
EndSplineSet
EndChar

StartChar: I
Encoding: 73 73 41
Width: 400
Flags: HMW
AnchorPoint: "marks_below" 200 0 basechar 0
AnchorPoint: "ogonek" 200 0 basechar 0
AnchorPoint: "marks_above" 200 800 basechar 0
LayerCount: 2
Fore
SplineSet
50 0 m 1
 50 100 l 1
 150 100 l 1
 150 600 l 1
 50 600 l 1
 50 700 l 1
 350 700 l 1
 350 600 l 1
 250 600 l 1
 250 100 l 1
 350 100 l 1
 350 0 l 1
 50 0 l 1
EndSplineSet
EndChar

StartChar: J
Encoding: 74 74 42
Width: 600
Flags: HMW
AnchorPoint: "marks_above" 400 800 basechar 0
LayerCount: 2
Fore
SplineSet
50 100 m 1
 50 200 l 1
 150 200 l 1
 150 150 l 1
 200 150 l 1
 200 100 l 1
 300 100 l 1
 300 150 l 1
 350 150 l 1
 350 600 l 1
 250 600 l 1
 250 700 l 1
 550 700 l 1
 550 600 l 1
 450 600 l 1
 450 100 l 1
 400 100 l 1
 400 50 l 1
 350 50 l 1
 350 0 l 1
 150 0 l 1
 150 50 l 1
 100 50 l 1
 100 100 l 1
 50 100 l 1
EndSplineSet
EndChar

StartChar: K
Encoding: 75 75 43
Width: 600
Flags: HMW
AnchorPoint: "marks_below" 300 0 basechar 0
AnchorPoint: "marks_above" 300 800 basechar 0
LayerCount: 2
Fore
SplineSet
50 0 m 1
 50 700 l 1
 150 700 l 1
 150 400 l 1
 200 400 l 1
 200 450 l 1
 250 450 l 1
 250 500 l 1
 300 500 l 1
 300 550 l 1
 350 550 l 1
 350 600 l 1
 400 600 l 1
 400 650 l 1
 450 650 l 1
 450 700 l 1
 550 700 l 1
 550 600 l 1
 500 600 l 1
 500 550 l 1
 450 550 l 1
 450 500 l 1
 400 500 l 1
 400 450 l 1
 350 450 l 1
 350 400 l 1
 300 400 l 1
 300 300 l 1
 350 300 l 1
 350 250 l 1
 400 250 l 1
 400 200 l 1
 450 200 l 1
 450 150 l 1
 500 150 l 1
 500 100 l 1
 550 100 l 1
 550 0 l 1
 450 0 l 1
 450 50 l 1
 400 50 l 1
 400 100 l 1
 350 100 l 1
 350 150 l 1
 300 150 l 1
 300 200 l 1
 250 200 l 1
 250 250 l 1
 200 250 l 1
 200 300 l 1
 150 300 l 1
 150 0 l 1
 50 0 l 1
EndSplineSet
EndChar

StartChar: L
Encoding: 76 76 44
Width: 600
Flags: HMW
AnchorPoint: "marks_aboveright" 250 450 basechar 0
AnchorPoint: "marks_below" 300 0 basechar 0
AnchorPoint: "marks_above" 300 800 basechar 0
LayerCount: 2
Fore
SplineSet
550 0 m 1
 50 0 l 1
 50 700 l 1
 150 700 l 1
 150 100 l 1
 550 100 l 1
 550 0 l 1
EndSplineSet
EndChar

StartChar: M
Encoding: 77 77 45
Width: 600
Flags: HMW
AnchorPoint: "marks_below" 300 0 basechar 0
AnchorPoint: "marks_above" 300 800 basechar 0
LayerCount: 2
Fore
SplineSet
450 0 m 1
 450 500 l 1
 400 500 l 1
 400 450 l 1
 350 450 l 1
 350 300 l 1
 250 300 l 1
 250 450 l 1
 200 450 l 1
 200 500 l 1
 150 500 l 1
 150 0 l 1
 50 0 l 1
 50 700 l 1
 150 700 l 1
 150 600 l 1
 250 600 l 1
 250 550 l 1
 350 550 l 1
 350 600 l 1
 450 600 l 1
 450 700 l 1
 550 700 l 1
 550 0 l 1
 450 0 l 1
EndSplineSet
EndChar

StartChar: N
Encoding: 78 78 46
Width: 600
Flags: HMW
AnchorPoint: "marks_below" 300 0 basechar 0
AnchorPoint: "marks_above" 300 800 basechar 0
LayerCount: 2
Fore
SplineSet
450 0 m 1
 450 150 l 1
 400 150 l 1
 400 200 l 1
 350 200 l 1
 350 250 l 1
 300 250 l 1
 300 300 l 1
 250 300 l 1
 250 350 l 1
 200 350 l 1
 200 400 l 1
 150 400 l 1
 150 0 l 1
 50 0 l 1
 50 700 l 1
 150 700 l 1
 150 550 l 1
 200 550 l 1
 200 500 l 1
 250 500 l 1
 250 450 l 1
 300 450 l 1
 300 400 l 1
 350 400 l 1
 350 350 l 1
 400 350 l 1
 400 300 l 1
 450 300 l 1
 450 700 l 1
 550 700 l 1
 550 0 l 1
 450 0 l 1
EndSplineSet
EndChar

StartChar: O
Encoding: 79 79 47
Width: 600
Flags: HMW
AnchorPoint: "marks_below" 300 0 basechar 0
AnchorPoint: "marks_above" 300 800 basechar 0
LayerCount: 2
Fore
SplineSet
450 0 m 1
 150 0 l 1
 150 50 l 1
 100 50 l 1
 100 100 l 1
 50 100 l 1
 50 600 l 1
 100 600 l 1
 100 650 l 1
 150 650 l 1
 150 700 l 1
 450 700 l 1
 450 650 l 1
 500 650 l 1
 500 600 l 1
 550 600 l 1
 550 100 l 1
 500 100 l 1
 500 50 l 1
 450 50 l 1
 450 0 l 1
200 100 m 1
 400 100 l 1
 400 150 l 1
 450 150 l 1
 450 550 l 1
 400 550 l 1
 400 600 l 1
 200 600 l 1
 200 550 l 1
 150 550 l 1
 150 150 l 1
 200 150 l 1
 200 100 l 1
EndSplineSet
EndChar

StartChar: P
Encoding: 80 80 48
Width: 600
Flags: HMW
AnchorPoint: "marks_below" 300 0 basechar 0
AnchorPoint: "marks_above" 300 800 basechar 0
LayerCount: 2
Fore
SplineSet
50 0 m 1
 50 700 l 1
 450 700 l 1
 450 650 l 1
 500 650 l 1
 500 600 l 1
 550 600 l 1
 550 400 l 1
 500 400 l 1
 500 350 l 1
 450 350 l 1
 450 300 l 1
 150 300 l 1
 150 0 l 1
 50 0 l 1
150 400 m 1
 400 400 l 1
 400 450 l 1
 450 450 l 1
 450 550 l 1
 400 550 l 1
 400 600 l 1
 150 600 l 1
 150 400 l 1
EndSplineSet
EndChar

StartChar: Q
Encoding: 81 81 49
Width: 600
Flags: HMW
AnchorPoint: "marks_below" 300 0 basechar 0
AnchorPoint: "marks_above" 300 800 basechar 0
LayerCount: 2
Fore
SplineSet
250 200 m 1
 250 300 l 1
 350 300 l 1
 350 250 l 1
 450 250 l 1
 450 550 l 1
 400 550 l 1
 400 600 l 1
 200 600 l 1
 200 550 l 1
 150 550 l 1
 150 150 l 1
 200 150 l 1
 200 100 l 1
 300 100 l 1
 300 200 l 1
 250 200 l 1
350 0 m 1
 150 0 l 1
 150 50 l 1
 100 50 l 1
 100 100 l 1
 50 100 l 1
 50 600 l 1
 100 600 l 1
 100 650 l 1
 150 650 l 1
 150 700 l 1
 450 700 l 1
 450 650 l 1
 500 650 l 1
 500 600 l 1
 550 600 l 1
 550 200 l 1
 500 200 l 1
 500 100 l 1
 550 100 l 1
 550 0 l 1
 450 0 l 1
 450 50 l 1
 350 50 l 1
 350 0 l 1
EndSplineSet
EndChar

StartChar: R
Encoding: 82 82 50
Width: 600
Flags: HMW
AnchorPoint: "marks_below" 300 0 basechar 0
AnchorPoint: "marks_above" 300 800 basechar 0
LayerCount: 2
Fore
SplineSet
50 0 m 1
 50 700 l 1
 450 700 l 1
 450 650 l 1
 500 650 l 1
 500 600 l 1
 550 600 l 1
 550 400 l 1
 500 400 l 1
 500 350 l 1
 450 350 l 1
 450 300 l 1
 350 300 l 1
 350 250 l 1
 400 250 l 1
 400 200 l 1
 450 200 l 1
 450 150 l 1
 500 150 l 1
 500 100 l 1
 550 100 l 1
 550 0 l 1
 450 0 l 1
 450 50 l 1
 400 50 l 1
 400 100 l 1
 350 100 l 1
 350 150 l 1
 300 150 l 1
 300 200 l 1
 250 200 l 1
 250 250 l 1
 200 250 l 1
 200 300 l 1
 150 300 l 1
 150 0 l 1
 50 0 l 1
150 400 m 1
 400 400 l 1
 400 450 l 1
 450 450 l 1
 450 550 l 1
 400 550 l 1
 400 600 l 1
 150 600 l 1
 150 400 l 1
EndSplineSet
EndChar

StartChar: S
Encoding: 83 83 51
Width: 600
Flags: HMW
AnchorPoint: "marks_below" 300 0 basechar 0
AnchorPoint: "marks_above" 300 800 basechar 0
LayerCount: 2
Fore
SplineSet
50 100 m 1
 50 200 l 1
 150 200 l 1
 150 150 l 1
 200 150 l 1
 200 100 l 1
 400 100 l 1
 400 150 l 1
 450 150 l 1
 450 250 l 1
 400 250 l 1
 400 300 l 1
 150 300 l 1
 150 350 l 1
 100 350 l 1
 100 400 l 1
 50 400 l 1
 50 600 l 1
 100 600 l 1
 100 650 l 1
 150 650 l 1
 150 700 l 1
 450 700 l 1
 450 650 l 1
 500 650 l 1
 500 600 l 1
 550 600 l 1
 550 500 l 1
 450 500 l 1
 450 550 l 1
 400 550 l 1
 400 600 l 1
 200 600 l 1
 200 550 l 1
 150 550 l 1
 150 450 l 1
 200 450 l 1
 200 400 l 1
 450 400 l 1
 450 350 l 1
 500 350 l 1
 500 300 l 1
 550 300 l 1
 550 100 l 1
 500 100 l 1
 500 50 l 1
 450 50 l 1
 450 0 l 1
 150 0 l 1
 150 50 l 1
 100 50 l 1
 100 100 l 1
 50 100 l 1
EndSplineSet
EndChar

StartChar: T
Encoding: 84 84 52
Width: 600
Flags: HMW
AnchorPoint: "marks_below" 300 0 basechar 0
AnchorPoint: "marks_above" 300 800 basechar 0
LayerCount: 2
Fore
SplineSet
50 600 m 1
 50 700 l 1
 550 700 l 1
 550 600 l 1
 350 600 l 1
 350 0 l 1
 250 0 l 1
 250 600 l 1
 50 600 l 1
EndSplineSet
EndChar

StartChar: U
Encoding: 85 85 53
Width: 600
Flags: HMW
AnchorPoint: "ogonek" 300 0 basechar 0
AnchorPoint: "marks_below" 300 0 basechar 0
AnchorPoint: "marks_above" 300 800 basechar 0
LayerCount: 2
Fore
SplineSet
450 0 m 1
 150 0 l 1
 150 50 l 1
 100 50 l 1
 100 100 l 1
 50 100 l 1
 50 700 l 1
 150 700 l 1
 150 150 l 1
 200 150 l 1
 200 100 l 1
 400 100 l 1
 400 150 l 1
 450 150 l 1
 450 700 l 1
 550 700 l 1
 550 100 l 1
 500 100 l 1
 500 50 l 1
 450 50 l 1
 450 0 l 1
EndSplineSet
EndChar

StartChar: V
Encoding: 86 86 54
Width: 600
Flags: HMW
AnchorPoint: "marks_below" 300 0 basechar 0
AnchorPoint: "marks_above" 300 800 basechar 0
LayerCount: 2
Fore
SplineSet
450 250 m 1
 450 700 l 1
 550 700 l 1
 550 200 l 1
 500 200 l 1
 500 150 l 1
 450 150 l 1
 450 100 l 1
 400 100 l 1
 400 50 l 1
 350 50 l 1
 350 0 l 1
 250 0 l 1
 250 50 l 1
 200 50 l 1
 200 100 l 1
 150 100 l 1
 150 150 l 1
 100 150 l 1
 100 200 l 1
 50 200 l 1
 50 700 l 1
 150 700 l 1
 150 250 l 1
 200 250 l 1
 200 200 l 1
 250 200 l 1
 250 150 l 1
 350 150 l 1
 350 200 l 1
 400 200 l 1
 400 250 l 1
 450 250 l 1
EndSplineSet
EndChar

StartChar: W
Encoding: 87 87 55
Width: 600
Flags: HMW
AnchorPoint: "marks_below" 300 0 basechar 0
AnchorPoint: "marks_above" 300 800 basechar 0
LayerCount: 2
Fore
SplineSet
450 150 m 1
 450 700 l 1
 550 700 l 1
 550 100 l 1
 500 100 l 1
 500 50 l 1
 450 50 l 1
 450 0 l 1
 350 0 l 1
 350 50 l 1
 250 50 l 1
 250 0 l 1
 150 0 l 1
 150 50 l 1
 100 50 l 1
 100 100 l 1
 50 100 l 1
 50 700 l 1
 150 700 l 1
 150 150 l 1
 250 150 l 1
 250 400 l 1
 350 400 l 1
 350 150 l 1
 450 150 l 1
EndSplineSet
EndChar

StartChar: X
Encoding: 88 88 56
Width: 600
Flags: HMW
AnchorPoint: "marks_below" 300 0 basechar 0
AnchorPoint: "marks_above" 300 800 basechar 0
LayerCount: 2
Fore
SplineSet
450 0 m 1
 450 150 l 1
 400 150 l 1
 400 200 l 1
 350 200 l 1
 350 250 l 1
 250 250 l 1
 250 200 l 1
 200 200 l 1
 200 150 l 1
 150 150 l 1
 150 0 l 1
 50 0 l 1
 50 200 l 1
 100 200 l 1
 100 250 l 1
 150 250 l 1
 150 300 l 1
 200 300 l 1
 200 400 l 1
 150 400 l 1
 150 450 l 1
 100 450 l 1
 100 500 l 1
 50 500 l 1
 50 700 l 1
 150 700 l 1
 150 550 l 1
 200 550 l 1
 200 500 l 1
 250 500 l 1
 250 450 l 1
 350 450 l 1
 350 500 l 1
 400 500 l 1
 400 550 l 1
 450 550 l 1
 450 700 l 1
 550 700 l 1
 550 500 l 1
 500 500 l 1
 500 450 l 1
 450 450 l 1
 450 400 l 1
 400 400 l 1
 400 300 l 1
 450 300 l 1
 450 250 l 1
 500 250 l 1
 500 200 l 1
 550 200 l 1
 550 0 l 1
 450 0 l 1
EndSplineSet
EndChar

StartChar: Y
Encoding: 89 89 57
Width: 600
Flags: HMW
AnchorPoint: "marks_below" 300 0 basechar 0
AnchorPoint: "marks_above" 300 800 basechar 0
LayerCount: 2
Fore
SplineSet
250 0 m 1
 250 350 l 1
 200 350 l 1
 200 400 l 1
 150 400 l 1
 150 450 l 1
 100 450 l 1
 100 500 l 1
 50 500 l 1
 50 700 l 1
 150 700 l 1
 150 550 l 1
 200 550 l 1
 200 500 l 1
 250 500 l 1
 250 450 l 1
 350 450 l 1
 350 500 l 1
 400 500 l 1
 400 550 l 1
 450 550 l 1
 450 700 l 1
 550 700 l 1
 550 500 l 1
 500 500 l 1
 500 450 l 1
 450 450 l 1
 450 400 l 1
 400 400 l 1
 400 350 l 1
 350 350 l 1
 350 0 l 1
 250 0 l 1
EndSplineSet
EndChar

StartChar: Z
Encoding: 90 90 58
Width: 600
Flags: HMW
AnchorPoint: "marks_below" 300 0 basechar 0
AnchorPoint: "marks_above" 300 800 basechar 0
LayerCount: 2
Fore
SplineSet
50 600 m 1
 50 700 l 1
 550 700 l 1
 550 500 l 1
 500 500 l 1
 500 450 l 1
 450 450 l 1
 450 400 l 1
 400 400 l 1
 400 350 l 1
 350 350 l 1
 350 300 l 1
 300 300 l 1
 300 250 l 1
 250 250 l 1
 250 200 l 1
 200 200 l 1
 200 150 l 1
 150 150 l 1
 150 100 l 1
 550 100 l 1
 550 0 l 1
 50 0 l 1
 50 200 l 1
 100 200 l 1
 100 250 l 1
 150 250 l 1
 150 300 l 1
 200 300 l 1
 200 350 l 1
 250 350 l 1
 250 400 l 1
 300 400 l 1
 300 450 l 1
 350 450 l 1
 350 500 l 1
 400 500 l 1
 400 550 l 1
 450 550 l 1
 450 600 l 1
 50 600 l 1
EndSplineSet
EndChar

StartChar: bracketleft
Encoding: 91 91 59
Width: 400
Flags: HMW
LayerCount: 2
Fore
SplineSet
350 0 m 1
 50 0 l 1
 50 700 l 1
 350 700 l 1
 350 600 l 1
 150 600 l 1
 150 100 l 1
 350 100 l 1
 350 0 l 1
EndSplineSet
EndChar

StartChar: backslash
Encoding: 92 92 60
Width: 600
Flags: HMW
LayerCount: 2
Fore
SplineSet
50 500 m 1
 50 600 l 1
 150 600 l 1
 150 550 l 1
 200 550 l 1
 200 500 l 1
 250 500 l 1
 250 450 l 1
 300 450 l 1
 300 400 l 1
 350 400 l 1
 350 350 l 1
 400 350 l 1
 400 300 l 1
 450 300 l 1
 450 250 l 1
 500 250 l 1
 500 200 l 1
 550 200 l 1
 550 100 l 1
 450 100 l 1
 450 150 l 1
 400 150 l 1
 400 200 l 1
 350 200 l 1
 350 250 l 1
 300 250 l 1
 300 300 l 1
 250 300 l 1
 250 350 l 1
 200 350 l 1
 200 400 l 1
 150 400 l 1
 150 450 l 1
 100 450 l 1
 100 500 l 1
 50 500 l 1
EndSplineSet
EndChar

StartChar: bracketright
Encoding: 93 93 61
Width: 400
Flags: HMW
LayerCount: 2
Fore
SplineSet
50 0 m 1
 50 100 l 1
 250 100 l 1
 250 600 l 1
 50 600 l 1
 50 700 l 1
 350 700 l 1
 350 0 l 1
 50 0 l 1
EndSplineSet
EndChar

StartChar: asciicircum
Encoding: 94 94 62
Width: 600
Flags: HMW
LayerCount: 2
Fore
SplineSet
50 400 m 1
 50 500 l 1
 100 500 l 1
 100 550 l 1
 150 550 l 1
 150 600 l 1
 200 600 l 1
 200 650 l 1
 250 650 l 1
 250 700 l 1
 350 700 l 1
 350 650 l 1
 400 650 l 1
 400 600 l 1
 450 600 l 1
 450 550 l 1
 500 550 l 1
 500 500 l 1
 550 500 l 1
 550 400 l 1
 450 400 l 1
 450 450 l 1
 400 450 l 1
 400 500 l 1
 350 500 l 1
 350 550 l 1
 250 550 l 1
 250 500 l 1
 200 500 l 1
 200 450 l 1
 150 450 l 1
 150 400 l 1
 50 400 l 1
EndSplineSet
EndChar

StartChar: underscore
Encoding: 95 95 63
Width: 600
Flags: HMW
LayerCount: 2
Fore
SplineSet
0 -100 m 1
 0 0 l 1
 600 0 l 1
 600 -100 l 1
 0 -100 l 1
EndSplineSet
EndChar

StartChar: grave
Encoding: 96 96 64
Width: 300
Flags: HMW
LayerCount: 2
Fore
SplineSet
50 600 m 1
 50 700 l 1
 150 700 l 1
 150 650 l 1
 200 650 l 1
 200 600 l 1
 250 600 l 1
 250 500 l 1
 150 500 l 1
 150 550 l 1
 100 550 l 1
 100 600 l 1
 50 600 l 1
EndSplineSet
EndChar

StartChar: a
Encoding: 97 97 65
Width: 600
Flags: HMW
AnchorPoint: "ogonek" 400 0 basechar 0
AnchorPoint: "marks_below" 300 0 basechar 0
AnchorPoint: "marks_above" 300 600 basechar 0
LayerCount: 2
Fore
SplineSet
50 100 m 1
 50 200 l 1
 100 200 l 1
 100 250 l 1
 150 250 l 1
 150 300 l 1
 450 300 l 1
 450 350 l 1
 400 350 l 1
 400 400 l 1
 150 400 l 1
 150 500 l 1
 450 500 l 1
 450 450 l 1
 500 450 l 1
 500 400 l 1
 550 400 l 1
 550 0 l 1
 150 0 l 1
 150 50 l 1
 100 50 l 1
 100 100 l 1
 50 100 l 1
200 100 m 1
 450 100 l 1
 450 200 l 1
 200 200 l 1
 200 100 l 1
EndSplineSet
EndChar

StartChar: b
Encoding: 98 98 66
Width: 600
Flags: HMW
AnchorPoint: "marks_below" 300 0 basechar 0
AnchorPoint: "marks_above" 300 800 basechar 0
LayerCount: 2
Fore
SplineSet
450 0 m 1
 250 0 l 1
 250 50 l 1
 200 50 l 1
 200 100 l 1
 150 100 l 1
 150 0 l 1
 50 0 l 1
 50 700 l 1
 150 700 l 1
 150 400 l 1
 200 400 l 1
 200 450 l 1
 250 450 l 1
 250 500 l 1
 450 500 l 1
 450 450 l 1
 500 450 l 1
 500 400 l 1
 550 400 l 1
 550 100 l 1
 500 100 l 1
 500 50 l 1
 450 50 l 1
 450 0 l 1
300 100 m 1
 400 100 l 1
 400 150 l 1
 450 150 l 1
 450 350 l 1
 400 350 l 1
 400 400 l 1
 300 400 l 1
 300 350 l 1
 250 350 l 1
 250 300 l 1
 200 300 l 1
 200 200 l 1
 250 200 l 1
 250 150 l 1
 300 150 l 1
 300 100 l 1
EndSplineSet
EndChar

StartChar: c
Encoding: 99 99 67
Width: 600
Flags: HMW
AnchorPoint: "marks_below" 300 0 basechar 0
AnchorPoint: "marks_above" 300 600 basechar 0
LayerCount: 2
Fore
SplineSet
450 0 m 1
 150 0 l 1
 150 50 l 1
 100 50 l 1
 100 100 l 1
 50 100 l 1
 50 400 l 1
 100 400 l 1
 100 450 l 1
 150 450 l 1
 150 500 l 1
 450 500 l 1
 450 450 l 1
 500 450 l 1
 500 400 l 1
 550 400 l 1
 550 300 l 1
 450 300 l 1
 450 350 l 1
 400 350 l 1
 400 400 l 1
 200 400 l 1
 200 350 l 1
 150 350 l 1
 150 150 l 1
 200 150 l 1
 200 100 l 1
 400 100 l 1
 400 150 l 1
 450 150 l 1
 450 200 l 1
 550 200 l 1
 550 100 l 1
 500 100 l 1
 500 50 l 1
 450 50 l 1
 450 0 l 1
EndSplineSet
EndChar

StartChar: d
Encoding: 100 100 68
Width: 600
Flags: HMW
AnchorPoint: "marks_aboveright" 550 450 basechar 0
AnchorPoint: "marks_below" 300 0 basechar 0
AnchorPoint: "marks_above" 300 800 basechar 0
LayerCount: 2
Fore
SplineSet
350 0 m 1
 150 0 l 1
 150 50 l 1
 100 50 l 1
 100 100 l 1
 50 100 l 1
 50 400 l 1
 100 400 l 1
 100 450 l 1
 150 450 l 1
 150 500 l 1
 350 500 l 1
 350 450 l 1
 400 450 l 1
 400 400 l 1
 450 400 l 1
 450 700 l 1
 550 700 l 1
 550 0 l 1
 450 0 l 1
 450 100 l 1
 400 100 l 1
 400 50 l 1
 350 50 l 1
 350 0 l 1
200 100 m 1
 300 100 l 1
 300 150 l 1
 350 150 l 1
 350 200 l 1
 400 200 l 1
 400 300 l 1
 350 300 l 1
 350 350 l 1
 300 350 l 1
 300 400 l 1
 200 400 l 1
 200 350 l 1
 150 350 l 1
 150 150 l 1
 200 150 l 1
 200 100 l 1
EndSplineSet
EndChar

StartChar: e
Encoding: 101 101 69
Width: 600
Flags: HMW
AnchorPoint: "ogonek" 400 0 basechar 0
AnchorPoint: "marks_below" 300 0 basechar 0
AnchorPoint: "marks_above" 300 600 basechar 0
LayerCount: 2
Fore
SplineSet
450 0 m 1
 150 0 l 1
 150 50 l 1
 100 50 l 1
 100 100 l 1
 50 100 l 1
 50 400 l 1
 100 400 l 1
 100 450 l 1
 150 450 l 1
 150 500 l 1
 450 500 l 1
 450 450 l 1
 500 450 l 1
 500 400 l 1
 550 400 l 1
 550 200 l 1
 150 200 l 1
 150 150 l 1
 200 150 l 1
 200 100 l 1
 450 100 l 1
 450 0 l 1
150 300 m 1
 450 300 l 1
 450 350 l 1
 400 350 l 1
 400 400 l 1
 200 400 l 1
 200 350 l 1
 150 350 l 1
 150 300 l 1
EndSplineSet
EndChar

StartChar: f
Encoding: 102 102 70
Width: 600
Flags: HMW
AnchorPoint: "marks_below" 300 0 basechar 0
AnchorPoint: "marks_above" 300 800 basechar 0
LayerCount: 2
Fore
SplineSet
50 300 m 1
 50 400 l 1
 150 400 l 1
 150 600 l 1
 200 600 l 1
 200 650 l 1
 250 650 l 1
 250 700 l 1
 450 700 l 1
 450 650 l 1
 500 650 l 1
 500 600 l 1
 550 600 l 1
 550 500 l 1
 450 500 l 1
 450 550 l 1
 400 550 l 1
 400 600 l 1
 300 600 l 1
 300 550 l 1
 250 550 l 1
 250 400 l 1
 450 400 l 1
 450 300 l 1
 250 300 l 1
 250 0 l 1
 150 0 l 1
 150 300 l 1
 50 300 l 1
EndSplineSet
EndChar

StartChar: g
Encoding: 103 103 71
Width: 600
Flags: HMW
AnchorPoint: "marks_above" 300 600 basechar 0
LayerCount: 2
Fore
SplineSet
150 -200 m 1
 150 -100 l 1
 400 -100 l 1
 400 -50 l 1
 450 -50 l 1
 450 100 l 1
 400 100 l 1
 400 50 l 1
 350 50 l 1
 350 0 l 1
 150 0 l 1
 150 50 l 1
 100 50 l 1
 100 100 l 1
 50 100 l 1
 50 400 l 1
 100 400 l 1
 100 450 l 1
 150 450 l 1
 150 500 l 1
 350 500 l 1
 350 450 l 1
 400 450 l 1
 400 400 l 1
 450 400 l 1
 450 500 l 1
 550 500 l 1
 550 -100 l 1
 500 -100 l 1
 500 -150 l 1
 450 -150 l 1
 450 -200 l 1
 150 -200 l 1
200 100 m 1
 300 100 l 1
 300 150 l 1
 350 150 l 1
 350 200 l 1
 400 200 l 1
 400 300 l 1
 350 300 l 1
 350 350 l 1
 300 350 l 1
 300 400 l 1
 200 400 l 1
 200 350 l 1
 150 350 l 1
 150 150 l 1
 200 150 l 1
 200 100 l 1
EndSplineSet
EndChar

StartChar: h
Encoding: 104 104 72
Width: 600
Flags: HMW
AnchorPoint: "marks_below" 300 0 basechar 0
AnchorPoint: "marks_above" 300 800 basechar 0
LayerCount: 2
Fore
SplineSet
450 0 m 1
 450 350 l 1
 400 350 l 1
 400 400 l 1
 300 400 l 1
 300 350 l 1
 250 350 l 1
 250 300 l 1
 150 300 l 1
 150 0 l 1
 50 0 l 1
 50 700 l 1
 150 700 l 1
 150 400 l 1
 200 400 l 1
 200 450 l 1
 250 450 l 1
 250 500 l 1
 450 500 l 1
 450 450 l 1
 500 450 l 1
 500 400 l 1
 550 400 l 1
 550 0 l 1
 450 0 l 1
EndSplineSet
EndChar

StartChar: i
Encoding: 105 105 73
Width: 400
Flags: HMW
AnchorPoint: "marks_below" 200 0 basechar 0
AnchorPoint: "ogonek" 200 0 basechar 0
AnchorPoint: "marks_above" 200 800 basechar 0
LayerCount: 2
Fore
SplineSet
50 0 m 1
 50 100 l 1
 150 100 l 1
 150 400 l 1
 50 400 l 1
 50 500 l 1
 250 500 l 1
 250 100 l 1
 350 100 l 1
 350 0 l 1
 50 0 l 1
150 600 m 1
 150 700 l 1
 250 700 l 1
 250 600 l 1
 150 600 l 1
EndSplineSet
EndChar

StartChar: j
Encoding: 106 106 74
Width: 500
Flags: HMW
LayerCount: 2
Fore
SplineSet
50 -100 m 1
 50 0 l 1
 150 0 l 1
 150 -50 l 1
 200 -50 l 1
 200 -100 l 1
 300 -100 l 1
 300 -50 l 1
 350 -50 l 1
 350 400 l 1
 250 400 l 1
 250 500 l 1
 450 500 l 1
 450 -100 l 1
 400 -100 l 1
 400 -150 l 1
 350 -150 l 1
 350 -200 l 1
 150 -200 l 1
 150 -150 l 1
 100 -150 l 1
 100 -100 l 1
 50 -100 l 1
350 600 m 1
 350 700 l 1
 450 700 l 1
 450 600 l 1
 350 600 l 1
EndSplineSet
EndChar

StartChar: k
Encoding: 107 107 75
Width: 600
Flags: HMW
AnchorPoint: "marks_below" 300 0 basechar 0
AnchorPoint: "marks_above" 300 800 basechar 0
LayerCount: 2
Fore
SplineSet
50 0 m 1
 50 700 l 1
 150 700 l 1
 150 300 l 1
 300 300 l 1
 300 350 l 1
 350 350 l 1
 350 400 l 1
 400 400 l 1
 400 450 l 1
 450 450 l 1
 450 500 l 1
 550 500 l 1
 550 400 l 1
 500 400 l 1
 500 350 l 1
 450 350 l 1
 450 300 l 1
 400 300 l 1
 400 200 l 1
 450 200 l 1
 450 150 l 1
 500 150 l 1
 500 100 l 1
 550 100 l 1
 550 0 l 1
 450 0 l 1
 450 50 l 1
 400 50 l 1
 400 100 l 1
 350 100 l 1
 350 150 l 1
 300 150 l 1
 300 200 l 1
 150 200 l 1
 150 0 l 1
 50 0 l 1
EndSplineSet
EndChar

StartChar: l
Encoding: 108 108 76
Width: 400
Flags: HMW
AnchorPoint: "marks_aboveright" 250 450 basechar 0
AnchorPoint: "marks_below" 200 0 basechar 0
AnchorPoint: "ogonek" 200 0 basechar 0
AnchorPoint: "marks_above" 200 800 basechar 0
LayerCount: 2
Fore
SplineSet
50 0 m 1
 50 100 l 1
 150 100 l 1
 150 600 l 1
 50 600 l 1
 50 700 l 1
 250 700 l 1
 250 100 l 1
 350 100 l 1
 350 0 l 1
 50 0 l 1
EndSplineSet
EndChar

StartChar: m
Encoding: 109 109 77
Width: 600
Flags: HMW
AnchorPoint: "marks_below" 300 0 basechar 0
AnchorPoint: "marks_above" 300 600 basechar 0
LayerCount: 2
Fore
SplineSet
450 0 m 1
 450 350 l 1
 350 350 l 1
 350 100 l 1
 250 100 l 1
 250 350 l 1
 200 350 l 1
 200 400 l 1
 150 400 l 1
 150 0 l 1
 50 0 l 1
 50 500 l 1
 250 500 l 1
 250 450 l 1
 350 450 l 1
 350 500 l 1
 450 500 l 1
 450 450 l 1
 500 450 l 1
 500 400 l 1
 550 400 l 1
 550 0 l 1
 450 0 l 1
EndSplineSet
EndChar

StartChar: n
Encoding: 110 110 78
Width: 600
Flags: HMW
AnchorPoint: "marks_below" 300 0 basechar 0
AnchorPoint: "marks_above" 300 600 basechar 0
LayerCount: 2
Fore
SplineSet
450 0 m 1
 450 350 l 1
 400 350 l 1
 400 400 l 1
 300 400 l 1
 300 350 l 1
 250 350 l 1
 250 300 l 1
 150 300 l 1
 150 0 l 1
 50 0 l 1
 50 500 l 1
 150 500 l 1
 150 400 l 1
 200 400 l 1
 200 450 l 1
 250 450 l 1
 250 500 l 1
 450 500 l 1
 450 450 l 1
 500 450 l 1
 500 400 l 1
 550 400 l 1
 550 0 l 1
 450 0 l 1
EndSplineSet
EndChar

StartChar: o
Encoding: 111 111 79
Width: 600
Flags: HMW
AnchorPoint: "marks_below" 300 0 basechar 0
AnchorPoint: "marks_above" 300 600 basechar 0
LayerCount: 2
Fore
SplineSet
450 0 m 1
 150 0 l 1
 150 50 l 1
 100 50 l 1
 100 100 l 1
 50 100 l 1
 50 400 l 1
 100 400 l 1
 100 450 l 1
 150 450 l 1
 150 500 l 1
 450 500 l 1
 450 450 l 1
 500 450 l 1
 500 400 l 1
 550 400 l 1
 550 100 l 1
 500 100 l 1
 500 50 l 1
 450 50 l 1
 450 0 l 1
200 100 m 1
 400 100 l 1
 400 150 l 1
 450 150 l 1
 450 350 l 1
 400 350 l 1
 400 400 l 1
 200 400 l 1
 200 350 l 1
 150 350 l 1
 150 150 l 1
 200 150 l 1
 200 100 l 1
EndSplineSet
EndChar

StartChar: p
Encoding: 112 112 80
Width: 600
Flags: HMW
AnchorPoint: "marks_above" 300 600 basechar 0
LayerCount: 2
Fore
SplineSet
50 -200 m 1
 50 500 l 1
 150 500 l 1
 150 400 l 1
 200 400 l 1
 200 450 l 1
 250 450 l 1
 250 500 l 1
 450 500 l 1
 450 450 l 1
 500 450 l 1
 500 400 l 1
 550 400 l 1
 550 100 l 1
 500 100 l 1
 500 50 l 1
 450 50 l 1
 450 0 l 1
 250 0 l 1
 250 50 l 1
 200 50 l 1
 200 100 l 1
 150 100 l 1
 150 -200 l 1
 50 -200 l 1
300 100 m 1
 400 100 l 1
 400 150 l 1
 450 150 l 1
 450 350 l 1
 400 350 l 1
 400 400 l 1
 300 400 l 1
 300 350 l 1
 250 350 l 1
 250 300 l 1
 200 300 l 1
 200 200 l 1
 250 200 l 1
 250 150 l 1
 300 150 l 1
 300 100 l 1
EndSplineSet
EndChar

StartChar: q
Encoding: 113 113 81
Width: 600
Flags: HMW
AnchorPoint: "marks_above" 300 600 basechar 0
LayerCount: 2
Fore
SplineSet
450 -200 m 1
 450 100 l 1
 400 100 l 1
 400 50 l 1
 350 50 l 1
 350 0 l 1
 150 0 l 1
 150 50 l 1
 100 50 l 1
 100 100 l 1
 50 100 l 1
 50 400 l 1
 100 400 l 1
 100 450 l 1
 150 450 l 1
 150 500 l 1
 350 500 l 1
 350 450 l 1
 400 450 l 1
 400 400 l 1
 450 400 l 1
 450 500 l 1
 550 500 l 1
 550 -200 l 1
 450 -200 l 1
200 100 m 1
 300 100 l 1
 300 150 l 1
 350 150 l 1
 350 200 l 1
 400 200 l 1
 400 300 l 1
 350 300 l 1
 350 350 l 1
 300 350 l 1
 300 400 l 1
 200 400 l 1
 200 350 l 1
 150 350 l 1
 150 150 l 1
 200 150 l 1
 200 100 l 1
EndSplineSet
EndChar

StartChar: r
Encoding: 114 114 82
Width: 600
Flags: HMW
AnchorPoint: "marks_below" 300 0 basechar 0
AnchorPoint: "marks_above" 300 600 basechar 0
LayerCount: 2
Fore
SplineSet
50 0 m 1
 50 500 l 1
 150 500 l 1
 150 400 l 1
 200 400 l 1
 200 450 l 1
 250 450 l 1
 250 500 l 1
 450 500 l 1
 450 450 l 1
 500 450 l 1
 500 400 l 1
 550 400 l 1
 550 300 l 1
 450 300 l 1
 450 350 l 1
 400 350 l 1
 400 400 l 1
 300 400 l 1
 300 350 l 1
 250 350 l 1
 250 300 l 1
 150 300 l 1
 150 0 l 1
 50 0 l 1
EndSplineSet
EndChar

StartChar: s
Encoding: 115 115 83
Width: 600
Flags: HMW
AnchorPoint: "marks_below" 300 0 basechar 0
AnchorPoint: "marks_above" 300 600 basechar 0
LayerCount: 2
Fore
SplineSet
50 0 m 1
 50 100 l 1
 400 100 l 1
 400 200 l 1
 150 200 l 1
 150 250 l 1
 100 250 l 1
 100 300 l 1
 50 300 l 1
 50 400 l 1
 100 400 l 1
 100 450 l 1
 150 450 l 1
 150 500 l 1
 550 500 l 1
 550 400 l 1
 200 400 l 1
 200 300 l 1
 450 300 l 1
 450 250 l 1
 500 250 l 1
 500 200 l 1
 550 200 l 1
 550 100 l 1
 500 100 l 1
 500 50 l 1
 450 50 l 1
 450 0 l 1
 50 0 l 1
EndSplineSet
EndChar

StartChar: t
Encoding: 116 116 84
Width: 600
Flags: HMW
AnchorPoint: "marks_aboveright" 350 650 basechar 0
AnchorPoint: "marks_below" 300 0 basechar 0
AnchorPoint: "marks_above" 300 800 basechar 0
LayerCount: 2
Fore
SplineSet
50 400 m 1
 50 500 l 1
 150 500 l 1
 150 700 l 1
 250 700 l 1
 250 500 l 1
 450 500 l 1
 450 400 l 1
 250 400 l 1
 250 150 l 1
 300 150 l 1
 300 100 l 1
 400 100 l 1
 400 150 l 1
 450 150 l 1
 450 200 l 1
 550 200 l 1
 550 100 l 1
 500 100 l 1
 500 50 l 1
 450 50 l 1
 450 0 l 1
 250 0 l 1
 250 50 l 1
 200 50 l 1
 200 100 l 1
 150 100 l 1
 150 400 l 1
 50 400 l 1
EndSplineSet
EndChar

StartChar: u
Encoding: 117 117 85
Width: 600
Flags: HMW
AnchorPoint: "ogonek" 400 0 basechar 0
AnchorPoint: "marks_below" 300 0 basechar 0
AnchorPoint: "marks_above" 300 600 basechar 0
LayerCount: 2
Fore
SplineSet
350 0 m 1
 150 0 l 1
 150 50 l 1
 100 50 l 1
 100 100 l 1
 50 100 l 1
 50 500 l 1
 150 500 l 1
 150 150 l 1
 200 150 l 1
 200 100 l 1
 300 100 l 1
 300 150 l 1
 350 150 l 1
 350 200 l 1
 450 200 l 1
 450 500 l 1
 550 500 l 1
 550 0 l 1
 450 0 l 1
 450 100 l 1
 400 100 l 1
 400 50 l 1
 350 50 l 1
 350 0 l 1
EndSplineSet
EndChar

StartChar: v
Encoding: 118 118 86
Width: 600
Flags: HMW
AnchorPoint: "marks_below" 300 0 basechar 0
AnchorPoint: "marks_above" 300 600 basechar 0
LayerCount: 2
Fore
SplineSet
450 250 m 1
 450 500 l 1
 550 500 l 1
 550 200 l 1
 500 200 l 1
 500 150 l 1
 450 150 l 1
 450 100 l 1
 400 100 l 1
 400 50 l 1
 350 50 l 1
 350 0 l 1
 250 0 l 1
 250 50 l 1
 200 50 l 1
 200 100 l 1
 150 100 l 1
 150 150 l 1
 100 150 l 1
 100 200 l 1
 50 200 l 1
 50 500 l 1
 150 500 l 1
 150 250 l 1
 200 250 l 1
 200 200 l 1
 250 200 l 1
 250 150 l 1
 350 150 l 1
 350 200 l 1
 400 200 l 1
 400 250 l 1
 450 250 l 1
EndSplineSet
EndChar

StartChar: w
Encoding: 119 119 87
Width: 600
Flags: HMW
AnchorPoint: "marks_below" 300 0 basechar 0
AnchorPoint: "marks_above" 300 600 basechar 0
LayerCount: 2
Fore
SplineSet
450 150 m 1
 450 500 l 1
 550 500 l 1
 550 100 l 1
 500 100 l 1
 500 50 l 1
 450 50 l 1
 450 0 l 1
 350 0 l 1
 350 50 l 1
 250 50 l 1
 250 0 l 1
 150 0 l 1
 150 50 l 1
 100 50 l 1
 100 100 l 1
 50 100 l 1
 50 500 l 1
 150 500 l 1
 150 150 l 1
 250 150 l 1
 250 400 l 1
 350 400 l 1
 350 150 l 1
 450 150 l 1
EndSplineSet
EndChar

StartChar: x
Encoding: 120 120 88
Width: 600
Flags: HMW
AnchorPoint: "marks_below" 300 0 basechar 0
AnchorPoint: "marks_above" 300 600 basechar 0
LayerCount: 2
Fore
SplineSet
50 0 m 1
 50 100 l 1
 100 100 l 1
 100 150 l 1
 150 150 l 1
 150 200 l 1
 200 200 l 1
 200 300 l 1
 150 300 l 1
 150 350 l 1
 100 350 l 1
 100 400 l 1
 50 400 l 1
 50 500 l 1
 150 500 l 1
 150 450 l 1
 200 450 l 1
 200 400 l 1
 250 400 l 1
 250 350 l 1
 350 350 l 1
 350 400 l 1
 400 400 l 1
 400 450 l 1
 450 450 l 1
 450 500 l 1
 550 500 l 1
 550 400 l 1
 500 400 l 1
 500 350 l 1
 450 350 l 1
 450 300 l 1
 400 300 l 1
 400 200 l 1
 450 200 l 1
 450 150 l 1
 500 150 l 1
 500 100 l 1
 550 100 l 1
 550 0 l 1
 450 0 l 1
 450 50 l 1
 400 50 l 1
 400 100 l 1
 350 100 l 1
 350 150 l 1
 250 150 l 1
 250 100 l 1
 200 100 l 1
 200 50 l 1
 150 50 l 1
 150 0 l 1
 50 0 l 1
EndSplineSet
EndChar

StartChar: y
Encoding: 121 121 89
Width: 600
Flags: HMW
AnchorPoint: "marks_above" 300 600 basechar 0
LayerCount: 2
Fore
SplineSet
150 -200 m 1
 150 -100 l 1
 400 -100 l 1
 400 -50 l 1
 450 -50 l 1
 450 100 l 1
 400 100 l 1
 400 50 l 1
 350 50 l 1
 350 0 l 1
 150 0 l 1
 150 50 l 1
 100 50 l 1
 100 100 l 1
 50 100 l 1
 50 500 l 1
 150 500 l 1
 150 150 l 1
 200 150 l 1
 200 100 l 1
 300 100 l 1
 300 150 l 1
 350 150 l 1
 350 200 l 1
 450 200 l 1
 450 500 l 1
 550 500 l 1
 550 -100 l 1
 500 -100 l 1
 500 -150 l 1
 450 -150 l 1
 450 -200 l 1
 150 -200 l 1
EndSplineSet
EndChar

StartChar: z
Encoding: 122 122 90
Width: 600
Flags: HMW
AnchorPoint: "marks_below" 300 0 basechar 0
AnchorPoint: "marks_above" 300 600 basechar 0
LayerCount: 2
Fore
SplineSet
50 0 m 1
 50 100 l 1
 100 100 l 1
 100 150 l 1
 150 150 l 1
 150 200 l 1
 200 200 l 1
 200 250 l 1
 250 250 l 1
 250 300 l 1
 300 300 l 1
 300 350 l 1
 350 350 l 1
 350 400 l 1
 50 400 l 1
 50 500 l 1
 550 500 l 1
 550 400 l 1
 500 400 l 1
 500 350 l 1
 450 350 l 1
 450 300 l 1
 400 300 l 1
 400 250 l 1
 350 250 l 1
 350 200 l 1
 300 200 l 1
 300 150 l 1
 250 150 l 1
 250 100 l 1
 550 100 l 1
 550 0 l 1
 50 0 l 1
EndSplineSet
EndChar

StartChar: braceleft
Encoding: 123 123 91
Width: 500
Flags: HMW
LayerCount: 2
Fore
SplineSet
150 100 m 1
 150 200 l 1
 200 200 l 1
 200 300 l 1
 50 300 l 1
 50 400 l 1
 200 400 l 1
 200 500 l 1
 150 500 l 1
 150 600 l 1
 200 600 l 1
 200 650 l 1
 250 650 l 1
 250 700 l 1
 450 700 l 1
 450 600 l 1
 300 600 l 1
 300 500 l 1
 350 500 l 1
 350 400 l 1
 300 400 l 1
 300 300 l 1
 350 300 l 1
 350 200 l 1
 300 200 l 1
 300 100 l 1
 450 100 l 1
 450 0 l 1
 250 0 l 1
 250 50 l 1
 200 50 l 1
 200 100 l 1
 150 100 l 1
EndSplineSet
EndChar

StartChar: bar
Encoding: 124 124 92
Width: 200
Flags: HMW
LayerCount: 2
Fore
SplineSet
50 0 m 1
 50 700 l 1
 150 700 l 1
 150 0 l 1
 50 0 l 1
EndSplineSet
EndChar

StartChar: braceright
Encoding: 125 125 93
Width: 500
Flags: HMW
LayerCount: 2
Fore
SplineSet
50 0 m 1
 50 100 l 1
 200 100 l 1
 200 200 l 1
 150 200 l 1
 150 300 l 1
 200 300 l 1
 200 400 l 1
 150 400 l 1
 150 500 l 1
 200 500 l 1
 200 600 l 1
 50 600 l 1
 50 700 l 1
 250 700 l 1
 250 650 l 1
 300 650 l 1
 300 600 l 1
 350 600 l 1
 350 500 l 1
 300 500 l 1
 300 400 l 1
 450 400 l 1
 450 300 l 1
 300 300 l 1
 300 200 l 1
 350 200 l 1
 350 100 l 1
 300 100 l 1
 300 50 l 1
 250 50 l 1
 250 0 l 1
 50 0 l 1
EndSplineSet
EndChar

StartChar: asciitilde
Encoding: 126 126 94
Width: 600
Flags: HMW
LayerCount: 2
Fore
SplineSet
50 200 m 1
 50 400 l 1
 100 400 l 1
 100 450 l 1
 150 450 l 1
 150 500 l 1
 250 500 l 1
 250 450 l 1
 300 450 l 1
 300 400 l 1
 350 400 l 1
 350 350 l 1
 450 350 l 1
 450 500 l 1
 550 500 l 1
 550 300 l 1
 500 300 l 1
 500 250 l 1
 450 250 l 1
 450 200 l 1
 350 200 l 1
 350 250 l 1
 300 250 l 1
 300 300 l 1
 250 300 l 1
 250 350 l 1
 150 350 l 1
 150 200 l 1
 50 200 l 1
EndSplineSet
EndChar

StartChar: .notdef
Encoding: 1114113 -1 95
Width: 601
VWidth: 0
Flags: HMW
LayerCount: 2
Fore
SplineSet
130 70 m 1
 470 70 l 1
 470 630 l 1
 130 630 l 1
 130 70 l 1
550 0 m 1
 50 0 l 1
 50 700 l 1
 550 700 l 1
 550 0 l 1
EndSplineSet
EndChar

StartChar: exclamdown
Encoding: 161 161 96
Width: 200
Flags: HMW
LayerCount: 2
Fore
SplineSet
50 400 m 1
 50 500 l 1
 150 500 l 1
 150 400 l 1
 50 400 l 1
50 -200 m 1
 50 300 l 1
 150 300 l 1
 150 -200 l 1
 50 -200 l 1
EndSplineSet
EndChar

StartChar: cent
Encoding: 162 162 97
Width: 600
Flags: HMW
LayerCount: 2
Fore
SplineSet
350 100 m 1
 350 0 l 1
 250 0 l 1
 250 100 l 1
 150 100 l 1
 150 150 l 1
 100 150 l 1
 100 200 l 1
 50 200 l 1
 50 500 l 1
 100 500 l 1
 100 550 l 1
 150 550 l 1
 150 600 l 1
 250 600 l 1
 250 700 l 1
 350 700 l 1
 350 600 l 1
 450 600 l 1
 450 550 l 1
 500 550 l 1
 500 500 l 1
 550 500 l 1
 550 400 l 1
 450 400 l 1
 450 450 l 1
 400 450 l 1
 400 500 l 1
 350 500 l 1
 350 200 l 1
 400 200 l 1
 400 250 l 1
 450 250 l 1
 450 300 l 1
 550 300 l 1
 550 200 l 1
 500 200 l 1
 500 150 l 1
 450 150 l 1
 450 100 l 1
 350 100 l 1
250 200 m 1
 250 500 l 1
 200 500 l 1
 200 450 l 1
 150 450 l 1
 150 250 l 1
 200 250 l 1
 200 200 l 1
 250 200 l 1
EndSplineSet
EndChar

StartChar: sterling
Encoding: 163 163 98
Width: 600
Flags: HMW
LayerCount: 2
Fore
SplineSet
50 0 m 1
 50 100 l 1
 150 100 l 1
 150 300 l 1
 50 300 l 1
 50 400 l 1
 150 400 l 1
 150 600 l 1
 200 600 l 1
 200 650 l 1
 250 650 l 1
 250 700 l 1
 450 700 l 1
 450 650 l 1
 500 650 l 1
 500 600 l 1
 550 600 l 1
 550 500 l 1
 450 500 l 1
 450 550 l 1
 400 550 l 1
 400 600 l 1
 300 600 l 1
 300 550 l 1
 250 550 l 1
 250 400 l 1
 350 400 l 1
 350 300 l 1
 250 300 l 1
 250 100 l 1
 550 100 l 1
 550 0 l 1
 50 0 l 1
EndSplineSet
EndChar

StartChar: currency
Encoding: 164 164 99
Width: 600
Flags: HMW
LayerCount: 2
Fore
SplineSet
50 100 m 1
 50 200 l 1
 100 200 l 1
 100 250 l 1
 150 250 l 1
 150 450 l 1
 100 450 l 1
 100 500 l 1
 50 500 l 1
 50 600 l 1
 150 600 l 1
 150 550 l 1
 200 550 l 1
 200 500 l 1
 400 500 l 1
 400 550 l 1
 450 550 l 1
 450 600 l 1
 550 600 l 1
 550 500 l 1
 500 500 l 1
 500 450 l 1
 450 450 l 1
 450 250 l 1
 500 250 l 1
 500 200 l 1
 550 200 l 1
 550 100 l 1
 450 100 l 1
 450 150 l 1
 400 150 l 1
 400 200 l 1
 200 200 l 1
 200 150 l 1
 150 150 l 1
 150 100 l 1
 50 100 l 1
350 300 m 1
 350 400 l 1
 250 400 l 1
 250 300 l 1
 350 300 l 1
EndSplineSet
EndChar

StartChar: yen
Encoding: 165 165 100
Width: 600
Flags: HMW
LayerCount: 2
Fore
SplineSet
150 100 m 1
 150 200 l 1
 450 200 l 1
 450 100 l 1
 350 100 l 1
 350 0 l 1
 250 0 l 1
 250 100 l 1
 150 100 l 1
150 300 m 1
 150 400 l 1
 250 400 l 1
 250 450 l 1
 200 450 l 1
 200 500 l 1
 150 500 l 1
 150 550 l 1
 100 550 l 1
 100 600 l 1
 50 600 l 1
 50 700 l 1
 150 700 l 1
 150 650 l 1
 200 650 l 1
 200 600 l 1
 250 600 l 1
 250 550 l 1
 350 550 l 1
 350 600 l 1
 400 600 l 1
 400 650 l 1
 450 650 l 1
 450 700 l 1
 550 700 l 1
 550 600 l 1
 500 600 l 1
 500 550 l 1
 450 550 l 1
 450 500 l 1
 400 500 l 1
 400 450 l 1
 350 450 l 1
 350 400 l 1
 450 400 l 1
 450 300 l 1
 350 300 l 1
 350 200 l 1
 250 200 l 1
 250 300 l 1
 150 300 l 1
EndSplineSet
EndChar

StartChar: brokenbar
Encoding: 166 166 101
Width: 200
Flags: HMW
LayerCount: 2
Fore
SplineSet
50 0 m 1
 50 300 l 1
 150 300 l 1
 150 0 l 1
 50 0 l 1
50 400 m 1
 50 700 l 1
 150 700 l 1
 150 400 l 1
 50 400 l 1
EndSplineSet
EndChar

StartChar: section
Encoding: 167 167 102
Width: 600
Flags: HMW
LayerCount: 2
Fore
SplineSet
50 -100 m 1
 50 0 l 1
 150 0 l 1
 150 -50 l 1
 200 -50 l 1
 200 -100 l 1
 400 -100 l 1
 400 -50 l 1
 450 -50 l 1
 450 50 l 1
 400 50 l 1
 400 100 l 1
 150 100 l 1
 150 150 l 1
 100 150 l 1
 100 200 l 1
 50 200 l 1
 50 300 l 1
 100 300 l 1
 100 400 l 1
 50 400 l 1
 50 600 l 1
 100 600 l 1
 100 650 l 1
 150 650 l 1
 150 700 l 1
 450 700 l 1
 450 650 l 1
 500 650 l 1
 500 600 l 1
 550 600 l 1
 550 500 l 1
 450 500 l 1
 450 550 l 1
 400 550 l 1
 400 600 l 1
 200 600 l 1
 200 550 l 1
 150 550 l 1
 150 450 l 1
 200 450 l 1
 200 400 l 1
 450 400 l 1
 450 350 l 1
 500 350 l 1
 500 300 l 1
 550 300 l 1
 550 200 l 1
 500 200 l 1
 500 100 l 1
 550 100 l 1
 550 -100 l 1
 500 -100 l 1
 500 -150 l 1
 450 -150 l 1
 450 -200 l 1
 150 -200 l 1
 150 -150 l 1
 100 -150 l 1
 100 -100 l 1
 50 -100 l 1
200 200 m 1
 400 200 l 1
 400 300 l 1
 200 300 l 1
 200 200 l 1
EndSplineSet
EndChar

StartChar: dieresis
Encoding: 168 168 103
Width: 400
Flags: HMW
LayerCount: 2
Fore
SplineSet
250 600 m 1
 250 700 l 1
 350 700 l 1
 350 600 l 1
 250 600 l 1
50 600 m 1
 50 700 l 1
 150 700 l 1
 150 600 l 1
 50 600 l 1
EndSplineSet
EndChar

StartChar: copyright
Encoding: 169 169 104
Width: 700
Flags: HMW
LayerCount: 2
Fore
SplineSet
550 0 m 1
 150 0 l 1
 150 50 l 1
 100 50 l 1
 100 100 l 1
 50 100 l 1
 50 600 l 1
 100 600 l 1
 100 650 l 1
 150 650 l 1
 150 700 l 1
 550 700 l 1
 550 650 l 1
 600 650 l 1
 600 600 l 1
 650 600 l 1
 650 100 l 1
 600 100 l 1
 600 50 l 1
 550 50 l 1
 550 0 l 1
200 100 m 1
 500 100 l 1
 500 150 l 1
 550 150 l 1
 550 550 l 1
 500 550 l 1
 500 600 l 1
 200 600 l 1
 200 550 l 1
 150 550 l 1
 150 150 l 1
 200 150 l 1
 200 100 l 1
450 200 m 1
 250 200 l 1
 250 500 l 1
 450 500 l 1
 450 400 l 1
 350 400 l 1
 350 300 l 1
 450 300 l 1
 450 200 l 1
EndSplineSet
EndChar

StartChar: ordfeminine
Encoding: 170 170 105
Width: 500
Flags: HMW
LayerCount: 2
Fore
SplineSet
50 100 m 1
 50 200 l 1
 450 200 l 1
 450 100 l 1
 50 100 l 1
450 300 m 1
 150 300 l 1
 150 350 l 1
 100 350 l 1
 100 400 l 1
 50 400 l 1
 50 600 l 1
 100 600 l 1
 100 650 l 1
 150 650 l 1
 150 700 l 1
 450 700 l 1
 450 300 l 1
200 400 m 1
 350 400 l 1
 350 600 l 1
 200 600 l 1
 200 550 l 1
 150 550 l 1
 150 450 l 1
 200 450 l 1
 200 400 l 1
EndSplineSet
EndChar

StartChar: logicalnot
Encoding: 172 172 106
Width: 600
Flags: HMW
LayerCount: 2
Fore
SplineSet
50 300 m 1
 50 400 l 1
 550 400 l 1
 550 100 l 1
 450 100 l 1
 450 300 l 1
 50 300 l 1
EndSplineSet
EndChar

StartChar: registered
Encoding: 174 174 107
Width: 700
Flags: HMW
LayerCount: 2
Fore
SplineSet
550 0 m 1
 150 0 l 1
 150 50 l 1
 100 50 l 1
 100 100 l 1
 50 100 l 1
 50 600 l 1
 100 600 l 1
 100 650 l 1
 150 650 l 1
 150 700 l 1
 550 700 l 1
 550 650 l 1
 600 650 l 1
 600 600 l 1
 650 600 l 1
 650 100 l 1
 600 100 l 1
 600 50 l 1
 550 50 l 1
 550 0 l 1
200 100 m 1
 500 100 l 1
 500 150 l 1
 550 150 l 1
 550 550 l 1
 500 550 l 1
 500 600 l 1
 200 600 l 1
 200 550 l 1
 150 550 l 1
 150 150 l 1
 200 150 l 1
 200 100 l 1
250 200 m 1
 250 500 l 1
 450 500 l 1
 450 400 l 1
 350 400 l 1
 350 200 l 1
 250 200 l 1
EndSplineSet
EndChar

StartChar: macron
Encoding: 175 175 108
Width: 400
Flags: HMW
LayerCount: 2
Fore
SplineSet
50 600 m 1
 50 700 l 1
 350 700 l 1
 350 600 l 1
 50 600 l 1
EndSplineSet
EndChar

StartChar: degree
Encoding: 176 176 109
Width: 500
Flags: HMW
LayerCount: 2
Fore
SplineSet
350 300 m 1
 150 300 l 1
 150 350 l 1
 100 350 l 1
 100 400 l 1
 50 400 l 1
 50 600 l 1
 100 600 l 1
 100 650 l 1
 150 650 l 1
 150 700 l 1
 350 700 l 1
 350 650 l 1
 400 650 l 1
 400 600 l 1
 450 600 l 1
 450 400 l 1
 400 400 l 1
 400 350 l 1
 350 350 l 1
 350 300 l 1
200 400 m 1
 300 400 l 1
 300 450 l 1
 350 450 l 1
 350 550 l 1
 300 550 l 1
 300 600 l 1
 200 600 l 1
 200 550 l 1
 150 550 l 1
 150 450 l 1
 200 450 l 1
 200 400 l 1
EndSplineSet
EndChar

StartChar: uni00B2
Encoding: 178 178 110
Width: 400
Flags: HMW
LayerCount: 2
Fore
SplineSet
50 600 m 1
 50 700 l 1
 250 700 l 1
 250 650 l 1
 300 650 l 1
 300 600 l 1
 350 600 l 1
 350 500 l 1
 300 500 l 1
 300 450 l 1
 250 450 l 1
 250 400 l 1
 200 400 l 1
 200 350 l 1
 150 350 l 1
 150 300 l 1
 350 300 l 1
 350 200 l 1
 50 200 l 1
 50 400 l 1
 100 400 l 1
 100 450 l 1
 150 450 l 1
 150 500 l 1
 200 500 l 1
 200 600 l 1
 50 600 l 1
EndSplineSet
EndChar

StartChar: uni00B3
Encoding: 179 179 111
Width: 400
Flags: HMW
LayerCount: 2
Fore
SplineSet
50 200 m 1
 50 300 l 1
 200 300 l 1
 200 400 l 1
 50 400 l 1
 50 500 l 1
 200 500 l 1
 200 600 l 1
 50 600 l 1
 50 700 l 1
 250 700 l 1
 250 650 l 1
 300 650 l 1
 300 600 l 1
 350 600 l 1
 350 500 l 1
 300 500 l 1
 300 400 l 1
 350 400 l 1
 350 300 l 1
 300 300 l 1
 300 250 l 1
 250 250 l 1
 250 200 l 1
 50 200 l 1
EndSplineSet
EndChar

StartChar: acute
Encoding: 180 180 112
Width: 300
Flags: HMW
LayerCount: 2
Fore
SplineSet
50 500 m 1
 50 600 l 1
 100 600 l 1
 100 650 l 1
 150 650 l 1
 150 700 l 1
 250 700 l 1
 250 600 l 1
 200 600 l 1
 200 550 l 1
 150 550 l 1
 150 500 l 1
 50 500 l 1
EndSplineSet
EndChar

StartChar: mu
Encoding: 181 181 113
Width: 600
Flags: HMW
LayerCount: 2
Fore
SplineSet
50 -200 m 1
 50 500 l 1
 150 500 l 1
 150 100 l 1
 300 100 l 1
 300 150 l 1
 350 150 l 1
 350 500 l 1
 450 500 l 1
 450 150 l 1
 500 150 l 1
 500 100 l 1
 550 100 l 1
 550 0 l 1
 450 0 l 1
 450 50 l 1
 350 50 l 1
 350 0 l 1
 150 0 l 1
 150 -200 l 1
 50 -200 l 1
EndSplineSet
EndChar

StartChar: paragraph
Encoding: 182 182 114
Width: 600
Flags: HMW
LayerCount: 2
Fore
SplineSet
450 -200 m 1
 450 600 l 1
 350 600 l 1
 350 -200 l 1
 250 -200 l 1
 250 300 l 1
 150 300 l 1
 150 400 l 1
 50 400 l 1
 50 600 l 1
 150 600 l 1
 150 700 l 1
 550 700 l 1
 550 -200 l 1
 450 -200 l 1
EndSplineSet
EndChar

StartChar: periodcentered
Encoding: 183 183 115
Width: 200
VWidth: 0
Flags: HMW
LayerCount: 2
Fore
SplineSet
50 300 m 1
 50 400 l 1
 150 400 l 1
 150 300 l 1
 50 300 l 1
EndSplineSet
EndChar

StartChar: cedilla
Encoding: 184 184 116
Width: 300
Flags: HMW
LayerCount: 2
Fore
SplineSet
50 -200 m 1
 50 -100 l 1
 150 -100 l 1
 150 0 l 1
 250 0 l 1
 250 -200 l 1
 50 -200 l 1
EndSplineSet
EndChar

StartChar: uni00B9
Encoding: 185 185 117
Width: 400
Flags: HMW
LayerCount: 2
Fore
SplineSet
50 200 m 1
 50 300 l 1
 150 300 l 1
 150 500 l 1
 50 500 l 1
 50 600 l 1
 150 600 l 1
 150 700 l 1
 250 700 l 1
 250 300 l 1
 350 300 l 1
 350 200 l 1
 50 200 l 1
EndSplineSet
EndChar

StartChar: ordmasculine
Encoding: 186 186 118
Width: 500
Flags: HMW
LayerCount: 2
Fore
SplineSet
50 100 m 1
 50 200 l 1
 450 200 l 1
 450 100 l 1
 50 100 l 1
350 300 m 1
 150 300 l 1
 150 350 l 1
 100 350 l 1
 100 400 l 1
 50 400 l 1
 50 600 l 1
 100 600 l 1
 100 650 l 1
 150 650 l 1
 150 700 l 1
 350 700 l 1
 350 650 l 1
 400 650 l 1
 400 600 l 1
 450 600 l 1
 450 400 l 1
 400 400 l 1
 400 350 l 1
 350 350 l 1
 350 300 l 1
200 400 m 1
 300 400 l 1
 300 450 l 1
 350 450 l 1
 350 550 l 1
 300 550 l 1
 300 600 l 1
 200 600 l 1
 200 550 l 1
 150 550 l 1
 150 450 l 1
 200 450 l 1
 200 400 l 1
EndSplineSet
EndChar

StartChar: questiondown
Encoding: 191 191 123
Width: 600
Flags: HMW
LayerCount: 2
Fore
SplineSet
250 400 m 1
 250 500 l 1
 350 500 l 1
 350 400 l 1
 250 400 l 1
450 -200 m 1
 150 -200 l 1
 150 -150 l 1
 100 -150 l 1
 100 -100 l 1
 50 -100 l 1
 50 100 l 1
 100 100 l 1
 100 150 l 1
 150 150 l 1
 150 200 l 1
 250 200 l 1
 250 300 l 1
 350 300 l 1
 350 100 l 1
 200 100 l 1
 200 50 l 1
 150 50 l 1
 150 -50 l 1
 200 -50 l 1
 200 -100 l 1
 400 -100 l 1
 400 -50 l 1
 450 -50 l 1
 450 0 l 1
 550 0 l 1
 550 -100 l 1
 500 -100 l 1
 500 -150 l 1
 450 -150 l 1
 450 -200 l 1
EndSplineSet
EndChar

StartChar: AE
Encoding: 198 198 124
Width: 600
Flags: HMW
AnchorPoint: "marks_below" 300 0 basechar 0
AnchorPoint: "marks_above" 300 800 basechar 0
LayerCount: 2
Fore
SplineSet
550 0 m 1
 250 0 l 1
 250 200 l 1
 150 200 l 1
 150 0 l 1
 50 0 l 1
 50 500 l 1
 100 500 l 1
 100 550 l 1
 150 550 l 1
 150 600 l 1
 200 600 l 1
 200 650 l 1
 250 650 l 1
 250 700 l 1
 550 700 l 1
 550 600 l 1
 350 600 l 1
 350 400 l 1
 550 400 l 1
 550 300 l 1
 350 300 l 1
 350 100 l 1
 550 100 l 1
 550 0 l 1
250 300 m 1
 250 500 l 1
 200 500 l 1
 200 450 l 1
 150 450 l 1
 150 300 l 1
 250 300 l 1
EndSplineSet
EndChar

StartChar: Ccedilla
Encoding: 199 199 125
Width: 600
Flags: HM
LayerCount: 2
Fore
SplineSet
150 -200 m 1
 150 -100 l 1
 250 -100 l 1
 250 0 l 1
 150 0 l 1
 150 50 l 1
 100 50 l 1
 100 100 l 1
 50 100 l 1
 50 600 l 1
 100 600 l 1
 100 650 l 1
 150 650 l 1
 150 700 l 1
 450 700 l 1
 450 650 l 1
 500 650 l 1
 500 600 l 1
 550 600 l 1
 550 500 l 1
 450 500 l 1
 450 550 l 1
 400 550 l 1
 400 600 l 1
 200 600 l 1
 200 550 l 1
 150 550 l 1
 150 150 l 1
 200 150 l 1
 200 100 l 1
 400 100 l 1
 400 150 l 1
 450 150 l 1
 450 200 l 1
 550 200 l 1
 550 100 l 1
 500 100 l 1
 500 50 l 1
 450 50 l 1
 450 0 l 1
 350 0 l 1
 350 -200 l 1
 150 -200 l 1
EndSplineSet
EndChar

StartChar: Eth
Encoding: 208 208 134
Width: 600
Flags: HMW
AnchorPoint: "marks_below" 300 0 basechar 0
AnchorPoint: "marks_above" 300 800 basechar 0
LayerCount: 2
Fore
SplineSet
50 300 m 1
 50 400 l 1
 150 400 l 1
 150 700 l 1
 350 700 l 1
 350 650 l 1
 400 650 l 1
 400 600 l 1
 450 600 l 1
 450 550 l 1
 500 550 l 1
 500 500 l 1
 550 500 l 1
 550 200 l 1
 500 200 l 1
 500 150 l 1
 450 150 l 1
 450 100 l 1
 400 100 l 1
 400 50 l 1
 350 50 l 1
 350 0 l 1
 150 0 l 1
 150 300 l 1
 50 300 l 1
250 100 m 1
 300 100 l 1
 300 150 l 1
 350 150 l 1
 350 200 l 1
 400 200 l 1
 400 250 l 1
 450 250 l 1
 450 450 l 1
 400 450 l 1
 400 500 l 1
 350 500 l 1
 350 550 l 1
 300 550 l 1
 300 600 l 1
 250 600 l 1
 250 400 l 1
 350 400 l 1
 350 300 l 1
 250 300 l 1
 250 100 l 1
EndSplineSet
EndChar

StartChar: Oslash
Encoding: 216 216 142
Width: 600
Flags: HMW
AnchorPoint: "marks_below" 300 0 basechar 0
AnchorPoint: "marks_above" 300 800 basechar 0
LayerCount: 2
Fore
SplineSet
50 100 m 1
 50 200 l 1
 100 200 l 1
 100 300 l 1
 50 300 l 1
 50 600 l 1
 100 600 l 1
 100 650 l 1
 150 650 l 1
 150 700 l 1
 450 700 l 1
 450 650 l 1
 500 650 l 1
 500 600 l 1
 550 600 l 1
 550 500 l 1
 500 500 l 1
 500 400 l 1
 550 400 l 1
 550 100 l 1
 500 100 l 1
 500 50 l 1
 450 50 l 1
 450 0 l 1
 150 0 l 1
 150 50 l 1
 100 50 l 1
 100 100 l 1
 50 100 l 1
200 100 m 1
 400 100 l 1
 400 150 l 1
 450 150 l 1
 450 350 l 1
 350 350 l 1
 350 300 l 1
 300 300 l 1
 300 250 l 1
 250 250 l 1
 250 200 l 1
 200 200 l 1
 200 100 l 1
150 550 m 1
 150 350 l 1
 250 350 l 1
 250 400 l 1
 300 400 l 1
 300 450 l 1
 350 450 l 1
 350 500 l 1
 400 500 l 1
 400 600 l 1
 200 600 l 1
 200 550 l 1
 150 550 l 1
EndSplineSet
EndChar

StartChar: Thorn
Encoding: 222 222 148
Width: 600
Flags: HMW
AnchorPoint: "marks_below" 300 0 basechar 0
AnchorPoint: "marks_above" 300 800 basechar 0
LayerCount: 2
Fore
SplineSet
450 100 m 1
 150 100 l 1
 150 0 l 1
 50 0 l 1
 50 700 l 1
 150 700 l 1
 150 600 l 1
 450 600 l 1
 450 550 l 1
 500 550 l 1
 500 500 l 1
 550 500 l 1
 550 200 l 1
 500 200 l 1
 500 150 l 1
 450 150 l 1
 450 100 l 1
150 200 m 1
 400 200 l 1
 400 250 l 1
 450 250 l 1
 450 450 l 1
 400 450 l 1
 400 500 l 1
 150 500 l 1
 150 200 l 1
EndSplineSet
EndChar

StartChar: germandbls
Encoding: 223 223 149
Width: 600
Flags: HMW
AnchorPoint: "marks_below" 300 0 basechar 0
AnchorPoint: "marks_above" 300 800 basechar 0
LayerCount: 2
Fore
SplineSet
250 0 m 1
 250 100 l 1
 400 100 l 1
 400 150 l 1
 450 150 l 1
 450 250 l 1
 400 250 l 1
 400 300 l 1
 250 300 l 1
 250 400 l 1
 350 400 l 1
 350 550 l 1
 300 550 l 1
 300 600 l 1
 200 600 l 1
 200 550 l 1
 150 550 l 1
 150 0 l 1
 50 0 l 1
 50 600 l 1
 100 600 l 1
 100 650 l 1
 150 650 l 1
 150 700 l 1
 350 700 l 1
 350 650 l 1
 400 650 l 1
 400 600 l 1
 450 600 l 1
 450 350 l 1
 500 350 l 1
 500 300 l 1
 550 300 l 1
 550 100 l 1
 500 100 l 1
 500 50 l 1
 450 50 l 1
 450 0 l 1
 250 0 l 1
EndSplineSet
EndChar

StartChar: aring
Encoding: 229 229 155
Width: 600
Flags: HM
LayerCount: 2
Fore
SplineSet
150 600 m 1
 150 700 l 1
 200 700 l 1
 200 750 l 1
 250 750 l 1
 250 800 l 1
 350 800 l 1
 350 750 l 1
 400 750 l 1
 400 700 l 1
 450 700 l 1
 450 600 l 1
 400 600 l 1
 400 550 l 1
 350 550 l 1
 350 500 l 1
 450 500 l 1
 450 450 l 1
 500 450 l 1
 500 400 l 1
 550 400 l 1
 550 0 l 1
 150 0 l 1
 150 50 l 1
 100 50 l 1
 100 100 l 1
 50 100 l 1
 50 200 l 1
 100 200 l 1
 100 250 l 1
 150 250 l 1
 150 300 l 1
 450 300 l 1
 450 350 l 1
 400 350 l 1
 400 400 l 1
 150 400 l 1
 150 500 l 1
 250 500 l 1
 250 550 l 1
 200 550 l 1
 200 600 l 1
 150 600 l 1
250 600 m 1
 350 600 l 1
 350 700 l 1
 250 700 l 1
 250 600 l 1
450 200 m 1
 200 200 l 1
 200 100 l 1
 450 100 l 1
 450 200 l 1
EndSplineSet
EndChar

StartChar: ae
Encoding: 230 230 156
Width: 600
Flags: HMW
AnchorPoint: "marks_below" 300 0 basechar 0
AnchorPoint: "marks_above" 300 600 basechar 0
LayerCount: 2
Fore
SplineSet
50 100 m 1
 50 200 l 1
 100 200 l 1
 100 250 l 1
 150 250 l 1
 150 300 l 1
 250 300 l 1
 250 350 l 1
 200 350 l 1
 200 400 l 1
 50 400 l 1
 50 500 l 1
 250 500 l 1
 250 450 l 1
 350 450 l 1
 350 500 l 1
 450 500 l 1
 450 450 l 1
 500 450 l 1
 500 400 l 1
 550 400 l 1
 550 200 l 1
 350 200 l 1
 350 150 l 1
 400 150 l 1
 400 100 l 1
 550 100 l 1
 550 0 l 1
 350 0 l 1
 350 50 l 1
 250 50 l 1
 250 0 l 1
 150 0 l 1
 150 50 l 1
 100 50 l 1
 100 100 l 1
 50 100 l 1
250 200 m 1
 200 200 l 1
 200 150 l 1
 250 150 l 1
 250 200 l 1
450 300 m 1
 450 350 l 1
 350 350 l 1
 350 300 l 1
 450 300 l 1
EndSplineSet
EndChar

StartChar: ccedilla
Encoding: 231 231 157
Width: 600
Flags: HM
LayerCount: 2
Fore
SplineSet
150 -200 m 1
 150 -100 l 1
 250 -100 l 1
 250 0 l 1
 150 0 l 1
 150 50 l 1
 100 50 l 1
 100 100 l 1
 50 100 l 1
 50 400 l 1
 100 400 l 1
 100 450 l 1
 150 450 l 1
 150 500 l 1
 450 500 l 1
 450 450 l 1
 500 450 l 1
 500 400 l 1
 550 400 l 1
 550 300 l 1
 450 300 l 1
 450 350 l 1
 400 350 l 1
 400 400 l 1
 200 400 l 1
 200 350 l 1
 150 350 l 1
 150 150 l 1
 200 150 l 1
 200 100 l 1
 400 100 l 1
 400 150 l 1
 450 150 l 1
 450 200 l 1
 550 200 l 1
 550 100 l 1
 500 100 l 1
 500 50 l 1
 450 50 l 1
 450 0 l 1
 350 0 l 1
 350 -200 l 1
 150 -200 l 1
EndSplineSet
EndChar

StartChar: eth
Encoding: 240 240 166
Width: 600
Flags: HMW
AnchorPoint: "marks_below" 300 0 basechar 0
AnchorPoint: "marks_above" 300 800 basechar 0
LayerCount: 2
Fore
SplineSet
50 100 m 1
 50 200 l 1
 100 200 l 1
 100 250 l 1
 150 250 l 1
 150 300 l 1
 450 300 l 1
 450 450 l 1
 350 450 l 1
 350 400 l 1
 250 400 l 1
 250 500 l 1
 300 500 l 1
 300 600 l 1
 150 600 l 1
 150 700 l 1
 350 700 l 1
 350 650 l 1
 450 650 l 1
 450 700 l 1
 550 700 l 1
 550 600 l 1
 500 600 l 1
 500 500 l 1
 550 500 l 1
 550 100 l 1
 500 100 l 1
 500 50 l 1
 450 50 l 1
 450 0 l 1
 150 0 l 1
 150 50 l 1
 100 50 l 1
 100 100 l 1
 50 100 l 1
200 100 m 1
 400 100 l 1
 400 150 l 1
 450 150 l 1
 450 200 l 1
 200 200 l 1
 200 100 l 1
EndSplineSet
EndChar

StartChar: oslash
Encoding: 248 248 174
Width: 600
Flags: HMW
AnchorPoint: "marks_below" 300 0 basechar 0
AnchorPoint: "marks_above" 300 600 basechar 0
LayerCount: 2
Fore
SplineSet
50 0 m 1
 50 100 l 1
 100 100 l 1
 100 200 l 1
 50 200 l 1
 50 400 l 1
 100 400 l 1
 100 450 l 1
 150 450 l 1
 150 500 l 1
 350 500 l 1
 350 450 l 1
 450 450 l 1
 450 500 l 1
 550 500 l 1
 550 400 l 1
 500 400 l 1
 500 300 l 1
 550 300 l 1
 550 100 l 1
 500 100 l 1
 500 50 l 1
 450 50 l 1
 450 0 l 1
 250 0 l 1
 250 50 l 1
 150 50 l 1
 150 0 l 1
 50 0 l 1
300 100 m 1
 400 100 l 1
 400 150 l 1
 450 150 l 1
 450 250 l 1
 350 250 l 1
 350 200 l 1
 300 200 l 1
 300 100 l 1
150 350 m 1
 150 250 l 1
 250 250 l 1
 250 300 l 1
 300 300 l 1
 300 400 l 1
 200 400 l 1
 200 350 l 1
 150 350 l 1
EndSplineSet
EndChar

StartChar: thorn
Encoding: 254 254 180
Width: 600
Flags: HMW
LayerCount: 2
Fore
SplineSet
50 -200 m 1
 50 700 l 1
 150 700 l 1
 150 400 l 1
 200 400 l 1
 200 450 l 1
 250 450 l 1
 250 500 l 1
 450 500 l 1
 450 450 l 1
 500 450 l 1
 500 400 l 1
 550 400 l 1
 550 100 l 1
 500 100 l 1
 500 50 l 1
 450 50 l 1
 450 0 l 1
 250 0 l 1
 250 50 l 1
 200 50 l 1
 200 100 l 1
 150 100 l 1
 150 -200 l 1
 50 -200 l 1
300 100 m 1
 400 100 l 1
 400 150 l 1
 450 150 l 1
 450 350 l 1
 400 350 l 1
 400 400 l 1
 300 400 l 1
 300 350 l 1
 250 350 l 1
 250 300 l 1
 200 300 l 1
 200 200 l 1
 250 200 l 1
 250 150 l 1
 300 150 l 1
 300 100 l 1
EndSplineSet
EndChar

StartChar: dotlessi
Encoding: 305 305 182
Width: 400
Flags: HMW
AnchorPoint: "marks_above" 200 600 basechar 0
LayerCount: 2
Fore
SplineSet
50 0 m 1
 50 100 l 1
 150 100 l 1
 150 400 l 1
 50 400 l 1
 50 500 l 1
 250 500 l 1
 250 100 l 1
 350 100 l 1
 350 0 l 1
 50 0 l 1
EndSplineSet
EndChar

StartChar: Lslash
Encoding: 321 321 183
Width: 600
Flags: HMW
AnchorPoint: "marks_below" 300 0 basechar 0
AnchorPoint: "marks_above" 300 800 basechar 0
LayerCount: 2
Fore
SplineSet
50 200 m 1
 50 300 l 1
 150 300 l 1
 150 700 l 1
 250 700 l 1
 250 500 l 1
 300 500 l 1
 300 550 l 1
 350 550 l 1
 350 600 l 1
 450 600 l 1
 450 500 l 1
 400 500 l 1
 400 450 l 1
 350 450 l 1
 350 400 l 1
 300 400 l 1
 300 350 l 1
 250 350 l 1
 250 100 l 1
 550 100 l 1
 550 0 l 1
 150 0 l 1
 150 200 l 1
 50 200 l 1
EndSplineSet
EndChar

StartChar: lslash
Encoding: 322 322 184
Width: 400
Flags: HMW
AnchorPoint: "marks_below" 200 0 basechar 0
AnchorPoint: "ogonek" 200 0 basechar 0
AnchorPoint: "marks_above" 200 800 basechar 0
LayerCount: 2
Fore
SplineSet
50 0 m 1
 50 100 l 1
 150 100 l 1
 150 200 l 1
 50 200 l 1
 50 300 l 1
 150 300 l 1
 150 600 l 1
 50 600 l 1
 50 700 l 1
 250 700 l 1
 250 500 l 1
 350 500 l 1
 350 400 l 1
 250 400 l 1
 250 100 l 1
 350 100 l 1
 350 0 l 1
 50 0 l 1
EndSplineSet
EndChar

StartChar: OE
Encoding: 338 338 185
Width: 600
Flags: HMW
AnchorPoint: "marks_below" 300 0 basechar 0
AnchorPoint: "marks_above" 300 800 basechar 0
LayerCount: 2
Fore
SplineSet
550 0 m 1
 150 0 l 1
 150 50 l 1
 100 50 l 1
 100 100 l 1
 50 100 l 1
 50 600 l 1
 100 600 l 1
 100 650 l 1
 150 650 l 1
 150 700 l 1
 550 700 l 1
 550 600 l 1
 350 600 l 1
 350 400 l 1
 550 400 l 1
 550 300 l 1
 350 300 l 1
 350 100 l 1
 550 100 l 1
 550 0 l 1
250 100 m 1
 250 600 l 1
 200 600 l 1
 200 550 l 1
 150 550 l 1
 150 150 l 1
 200 150 l 1
 200 100 l 1
 250 100 l 1
EndSplineSet
EndChar

StartChar: oe
Encoding: 339 339 186
Width: 600
Flags: HMW
AnchorPoint: "marks_below" 300 0 basechar 0
AnchorPoint: "marks_above" 300 600 basechar 0
LayerCount: 2
Fore
SplineSet
550 0 m 1
 350 0 l 1
 350 50 l 1
 250 50 l 1
 250 0 l 1
 150 0 l 1
 150 50 l 1
 100 50 l 1
 100 100 l 1
 50 100 l 1
 50 400 l 1
 100 400 l 1
 100 450 l 1
 150 450 l 1
 150 500 l 1
 250 500 l 1
 250 450 l 1
 350 450 l 1
 350 500 l 1
 450 500 l 1
 450 450 l 1
 500 450 l 1
 500 400 l 1
 550 400 l 1
 550 200 l 1
 350 200 l 1
 350 150 l 1
 400 150 l 1
 400 100 l 1
 550 100 l 1
 550 0 l 1
250 150 m 1
 250 350 l 1
 150 350 l 1
 150 150 l 1
 250 150 l 1
450 300 m 1
 450 350 l 1
 350 350 l 1
 350 300 l 1
 450 300 l 1
EndSplineSet
EndChar

StartChar: florin
Encoding: 402 402 187
Width: 700
Flags: HMW
LayerCount: 2
Fore
SplineSet
50 -200 m 1
 50 -100 l 1
 200 -100 l 1
 200 -50 l 1
 250 -50 l 1
 250 300 l 1
 150 300 l 1
 150 400 l 1
 250 400 l 1
 250 600 l 1
 300 600 l 1
 300 650 l 1
 350 650 l 1
 350 700 l 1
 550 700 l 1
 550 650 l 1
 600 650 l 1
 600 600 l 1
 650 600 l 1
 650 500 l 1
 550 500 l 1
 550 550 l 1
 500 550 l 1
 500 600 l 1
 400 600 l 1
 400 550 l 1
 350 550 l 1
 350 400 l 1
 550 400 l 1
 550 300 l 1
 350 300 l 1
 350 -100 l 1
 300 -100 l 1
 300 -150 l 1
 250 -150 l 1
 250 -200 l 1
 50 -200 l 1
EndSplineSet
EndChar

StartChar: circumflex
Encoding: 710 710 188
Width: 400
Flags: HMW
LayerCount: 2
Fore
SplineSet
50 600 m 1
 50 700 l 1
 100 700 l 1
 100 750 l 1
 150 750 l 1
 150 800 l 1
 250 800 l 1
 250 750 l 1
 300 750 l 1
 300 700 l 1
 350 700 l 1
 350 600 l 1
 250 600 l 1
 250 650 l 1
 150 650 l 1
 150 600 l 1
 50 600 l 1
EndSplineSet
EndChar

StartChar: caron
Encoding: 711 711 189
Width: 400
Flags: HMW
LayerCount: 2
Fore
SplineSet
50 700 m 1
 50 800 l 1
 150 800 l 1
 150 750 l 1
 250 750 l 1
 250 800 l 1
 350 800 l 1
 350 700 l 1
 300 700 l 1
 300 650 l 1
 250 650 l 1
 250 600 l 1
 150 600 l 1
 150 650 l 1
 100 650 l 1
 100 700 l 1
 50 700 l 1
EndSplineSet
EndChar

StartChar: breve
Encoding: 728 728 190
Width: 600
Flags: HMW
LayerCount: 2
Fore
SplineSet
50 700 m 1
 50 800 l 1
 150 800 l 1
 150 750 l 1
 200 750 l 1
 200 700 l 1
 400 700 l 1
 400 750 l 1
 450 750 l 1
 450 800 l 1
 550 800 l 1
 550 700 l 1
 500 700 l 1
 500 650 l 1
 450 650 l 1
 450 600 l 1
 150 600 l 1
 150 650 l 1
 100 650 l 1
 100 700 l 1
 50 700 l 1
EndSplineSet
EndChar

StartChar: ring
Encoding: 730 730 191
Width: 400
Flags: HMW
LayerCount: 2
Fore
SplineSet
50 600 m 1
 50 700 l 1
 100 700 l 1
 100 750 l 1
 150 750 l 1
 150 800 l 1
 250 800 l 1
 250 750 l 1
 300 750 l 1
 300 700 l 1
 350 700 l 1
 350 600 l 1
 300 600 l 1
 300 550 l 1
 250 550 l 1
 250 500 l 1
 150 500 l 1
 150 550 l 1
 100 550 l 1
 100 600 l 1
 50 600 l 1
150 600 m 1
 250 600 l 1
 250 700 l 1
 150 700 l 1
 150 600 l 1
EndSplineSet
EndChar

StartChar: ogonek
Encoding: 731 731 192
Width: 300
Flags: HMW
LayerCount: 2
Fore
SplineSet
250 -200 m 1
 50 -200 l 1
 50 0 l 1
 150 0 l 1
 150 -100 l 1
 250 -100 l 1
 250 -200 l 1
EndSplineSet
EndChar

StartChar: tilde
Encoding: 732 732 193
Width: 600
Flags: HMW
LayerCount: 2
Fore
SplineSet
50 600 m 1
 50 700 l 1
 100 700 l 1
 100 750 l 1
 150 750 l 1
 150 800 l 1
 350 800 l 1
 350 700 l 1
 400 700 l 1
 400 750 l 1
 450 750 l 1
 450 800 l 1
 550 800 l 1
 550 700 l 1
 500 700 l 1
 500 650 l 1
 450 650 l 1
 450 600 l 1
 250 600 l 1
 250 700 l 1
 200 700 l 1
 200 650 l 1
 150 650 l 1
 150 600 l 1
 50 600 l 1
EndSplineSet
EndChar

StartChar: uni03A9
Encoding: 937 937 194
Width: 600
Flags: HMW
AnchorPoint: "marks_below" 300 0 basechar 0
AnchorPoint: "marks_above" 300 800 basechar 0
LayerCount: 2
Fore
SplineSet
50 0 m 1
 50 100 l 1
 150 100 l 1
 150 150 l 1
 100 150 l 1
 100 200 l 1
 50 200 l 1
 50 600 l 1
 100 600 l 1
 100 650 l 1
 150 650 l 1
 150 700 l 1
 450 700 l 1
 450 650 l 1
 500 650 l 1
 500 600 l 1
 550 600 l 1
 550 200 l 1
 500 200 l 1
 500 150 l 1
 450 150 l 1
 450 100 l 1
 550 100 l 1
 550 0 l 1
 350 0 l 1
 350 200 l 1
 400 200 l 1
 400 250 l 1
 450 250 l 1
 450 550 l 1
 400 550 l 1
 400 600 l 1
 200 600 l 1
 200 550 l 1
 150 550 l 1
 150 250 l 1
 200 250 l 1
 200 200 l 1
 250 200 l 1
 250 0 l 1
 50 0 l 1
EndSplineSet
EndChar

StartChar: pi
Encoding: 960 960 195
Width: 600
Flags: HMW
LayerCount: 2
Fore
SplineSet
50 400 m 1
 50 500 l 1
 550 500 l 1
 550 400 l 1
 450 400 l 1
 450 150 l 1
 500 150 l 1
 500 100 l 1
 550 100 l 1
 550 0 l 1
 450 0 l 1
 450 50 l 1
 400 50 l 1
 400 100 l 1
 350 100 l 1
 350 400 l 1
 250 400 l 1
 250 0 l 1
 150 0 l 1
 150 400 l 1
 50 400 l 1
EndSplineSet
EndChar

StartChar: emdash
Encoding: 8212 8212 196
Width: 600
Flags: HMW
LayerCount: 2
Fore
SplineSet
0 300 m 1
 0 400 l 1
 600 400 l 1
 600 300 l 1
 0 300 l 1
EndSplineSet
EndChar

StartChar: quoteleft
Encoding: 8216 8216 197
Width: 300
Flags: HMW
LayerCount: 2
Fore
SplineSet
50 400 m 1
 50 600 l 1
 100 600 l 1
 100 650 l 1
 150 650 l 1
 150 700 l 1
 250 700 l 1
 250 600 l 1
 200 600 l 1
 200 550 l 1
 150 550 l 1
 150 400 l 1
 50 400 l 1
EndSplineSet
EndChar

StartChar: dagger
Encoding: 8224 8224 198
Width: 600
Flags: HMW
LayerCount: 2
Fore
SplineSet
50 400 m 1
 50 500 l 1
 250 500 l 1
 250 700 l 1
 350 700 l 1
 350 500 l 1
 550 500 l 1
 550 400 l 1
 350 400 l 1
 350 0 l 1
 250 0 l 1
 250 400 l 1
 50 400 l 1
EndSplineSet
EndChar

StartChar: daggerdbl
Encoding: 8225 8225 199
Width: 600
Flags: HMW
LayerCount: 2
Fore
SplineSet
50 200 m 1
 50 300 l 1
 250 300 l 1
 250 400 l 1
 50 400 l 1
 50 500 l 1
 250 500 l 1
 250 700 l 1
 350 700 l 1
 350 500 l 1
 550 500 l 1
 550 400 l 1
 350 400 l 1
 350 300 l 1
 550 300 l 1
 550 200 l 1
 350 200 l 1
 350 0 l 1
 250 0 l 1
 250 200 l 1
 50 200 l 1
EndSplineSet
EndChar

StartChar: bullet
Encoding: 8226 8226 200
Width: 300
Flags: HMW
LayerCount: 2
Fore
SplineSet
250 300 m 1
 50 300 l 1
 50 500 l 1
 250 500 l 1
 250 300 l 1
EndSplineSet
EndChar

StartChar: guilsinglleft
Encoding: 8249 8249 201
Width: 300
Flags: HMW
LayerCount: 2
Fore
SplineSet
50 300 m 1
 50 400 l 1
 100 400 l 1
 100 450 l 1
 150 450 l 1
 150 500 l 1
 250 500 l 1
 250 400 l 1
 200 400 l 1
 200 300 l 1
 250 300 l 1
 250 200 l 1
 150 200 l 1
 150 250 l 1
 100 250 l 1
 100 300 l 1
 50 300 l 1
EndSplineSet
EndChar

StartChar: guilsinglright
Encoding: 8250 8250 202
Width: 300
Flags: HMW
LayerCount: 2
Fore
SplineSet
50 200 m 1
 50 300 l 1
 100 300 l 1
 100 400 l 1
 50 400 l 1
 50 500 l 1
 150 500 l 1
 150 450 l 1
 200 450 l 1
 200 400 l 1
 250 400 l 1
 250 300 l 1
 200 300 l 1
 200 250 l 1
 150 250 l 1
 150 200 l 1
 50 200 l 1
EndSplineSet
EndChar

StartChar: uni2074
Encoding: 8308 8308 203
Width: 400
Flags: HMW
LayerCount: 2
Fore
SplineSet
350 700 m 1
 350 200 l 1
 250 200 l 1
 250 300 l 1
 50 300 l 1
 50 500 l 1
 100 500 l 1
 100 550 l 1
 150 550 l 1
 150 600 l 1
 200 600 l 1
 200 650 l 1
 250 650 l 1
 250 700 l 1
 350 700 l 1
250 400 m 1
 250 500 l 1
 200 500 l 1
 200 450 l 1
 150 450 l 1
 150 400 l 1
 250 400 l 1
EndSplineSet
EndChar

StartChar: Euro
Encoding: 8364 8364 204
Width: 600
Flags: HMW
LayerCount: 2
Fore
SplineSet
50 200 m 1
 50 300 l 1
 150 300 l 1
 150 400 l 1
 50 400 l 1
 50 500 l 1
 150 500 l 1
 150 600 l 1
 200 600 l 1
 200 650 l 1
 250 650 l 1
 250 700 l 1
 450 700 l 1
 450 650 l 1
 500 650 l 1
 500 600 l 1
 550 600 l 1
 550 500 l 1
 450 500 l 1
 450 550 l 1
 400 550 l 1
 400 600 l 1
 300 600 l 1
 300 550 l 1
 250 550 l 1
 250 500 l 1
 350 500 l 1
 350 400 l 1
 250 400 l 1
 250 300 l 1
 350 300 l 1
 350 200 l 1
 250 200 l 1
 250 150 l 1
 300 150 l 1
 300 100 l 1
 400 100 l 1
 400 150 l 1
 450 150 l 1
 450 200 l 1
 550 200 l 1
 550 100 l 1
 500 100 l 1
 500 50 l 1
 450 50 l 1
 450 0 l 1
 250 0 l 1
 250 50 l 1
 200 50 l 1
 200 100 l 1
 150 100 l 1
 150 200 l 1
 50 200 l 1
EndSplineSet
EndChar

StartChar: uni2113
Encoding: 8467 8467 205
Width: 600
Flags: HMW
LayerCount: 2
Fore
SplineSet
50 200 m 1
 50 300 l 1
 150 300 l 1
 150 600 l 1
 200 600 l 1
 200 650 l 1
 250 650 l 1
 250 700 l 1
 350 700 l 1
 350 650 l 1
 400 650 l 1
 400 600 l 1
 450 600 l 1
 450 400 l 1
 400 400 l 1
 400 350 l 1
 350 350 l 1
 350 300 l 1
 250 300 l 1
 250 150 l 1
 300 150 l 1
 300 100 l 1
 400 100 l 1
 400 150 l 1
 450 150 l 1
 450 200 l 1
 550 200 l 1
 550 100 l 1
 500 100 l 1
 500 50 l 1
 450 50 l 1
 450 0 l 1
 250 0 l 1
 250 50 l 1
 200 50 l 1
 200 100 l 1
 150 100 l 1
 150 200 l 1
 50 200 l 1
250 400 m 1
 300 400 l 1
 300 450 l 1
 350 450 l 1
 350 550 l 1
 250 550 l 1
 250 400 l 1
EndSplineSet
EndChar

StartChar: trademark
Encoding: 8482 8482 206
Width: 600
Flags: HMW
LayerCount: 2
Fore
SplineSet
50 600 m 1
 50 700 l 1
 550 700 l 1
 550 600 l 1
 350 600 l 1
 350 400 l 1
 250 400 l 1
 250 600 l 1
 50 600 l 1
450 0 m 1
 450 200 l 1
 400 200 l 1
 400 150 l 1
 350 150 l 1
 350 100 l 1
 250 100 l 1
 250 150 l 1
 200 150 l 1
 200 200 l 1
 150 200 l 1
 150 0 l 1
 50 0 l 1
 50 300 l 1
 250 300 l 1
 250 250 l 1
 350 250 l 1
 350 300 l 1
 550 300 l 1
 550 0 l 1
 450 0 l 1
EndSplineSet
EndChar

StartChar: partialdiff
Encoding: 8706 8706 207
Width: 600
Flags: HMW
LayerCount: 2
Fore
SplineSet
150 600 m 1
 150 700 l 1
 350 700 l 1
 350 650 l 1
 400 650 l 1
 400 600 l 1
 450 600 l 1
 450 550 l 1
 500 550 l 1
 500 500 l 1
 550 500 l 1
 550 100 l 1
 500 100 l 1
 500 50 l 1
 450 50 l 1
 450 0 l 1
 150 0 l 1
 150 50 l 1
 100 50 l 1
 100 100 l 1
 50 100 l 1
 50 300 l 1
 100 300 l 1
 100 350 l 1
 150 350 l 1
 150 400 l 1
 450 400 l 1
 450 450 l 1
 400 450 l 1
 400 500 l 1
 350 500 l 1
 350 550 l 1
 300 550 l 1
 300 600 l 1
 150 600 l 1
200 100 m 1
 400 100 l 1
 400 150 l 1
 450 150 l 1
 450 300 l 1
 200 300 l 1
 200 250 l 1
 150 250 l 1
 150 150 l 1
 200 150 l 1
 200 100 l 1
EndSplineSet
EndChar

StartChar: Delta
Encoding: 8710 8710 208
Width: 600
Flags: HMW
AnchorPoint: "marks_below" 300 0 basechar 0
AnchorPoint: "marks_above" 300 800 basechar 0
LayerCount: 2
Fore
SplineSet
550 0 m 1
 50 0 l 1
 50 300 l 1
 100 300 l 1
 100 350 l 1
 150 350 l 1
 150 500 l 1
 200 500 l 1
 200 550 l 1
 250 550 l 1
 250 700 l 1
 350 700 l 1
 350 550 l 1
 400 550 l 1
 400 500 l 1
 450 500 l 1
 450 350 l 1
 500 350 l 1
 500 300 l 1
 550 300 l 1
 550 0 l 1
150 100 m 1
 450 100 l 1
 450 250 l 1
 400 250 l 1
 400 300 l 1
 350 300 l 1
 350 450 l 1
 250 450 l 1
 250 300 l 1
 200 300 l 1
 200 250 l 1
 150 250 l 1
 150 100 l 1
EndSplineSet
EndChar

StartChar: product
Encoding: 8719 8719 209
Width: 600
Flags: HMW
LayerCount: 2
Fore
SplineSet
450 -200 m 1
 450 600 l 1
 150 600 l 1
 150 -200 l 1
 50 -200 l 1
 50 700 l 1
 550 700 l 1
 550 -200 l 1
 450 -200 l 1
EndSplineSet
EndChar

StartChar: summation
Encoding: 8721 8721 210
Width: 600
Flags: HMW
LayerCount: 2
Fore
SplineSet
550 -200 m 1
 50 -200 l 1
 50 0 l 1
 100 0 l 1
 100 50 l 1
 150 50 l 1
 150 100 l 1
 200 100 l 1
 200 150 l 1
 250 150 l 1
 250 200 l 1
 300 200 l 1
 300 300 l 1
 250 300 l 1
 250 350 l 1
 200 350 l 1
 200 400 l 1
 150 400 l 1
 150 450 l 1
 100 450 l 1
 100 500 l 1
 50 500 l 1
 50 700 l 1
 550 700 l 1
 550 600 l 1
 150 600 l 1
 150 550 l 1
 200 550 l 1
 200 500 l 1
 250 500 l 1
 250 450 l 1
 300 450 l 1
 300 400 l 1
 350 400 l 1
 350 350 l 1
 400 350 l 1
 400 300 l 1
 450 300 l 1
 450 200 l 1
 400 200 l 1
 400 150 l 1
 350 150 l 1
 350 100 l 1
 300 100 l 1
 300 50 l 1
 250 50 l 1
 250 0 l 1
 200 -0 l 1
 200 -50 l 1
 150 -50 l 1
 150 -100 l 1
 550 -100 l 1
 550 -200 l 1
EndSplineSet
EndChar

StartChar: minus
Encoding: 8722 8722 211
Width: 600
Flags: HMW
LayerCount: 2
Fore
SplineSet
50 300 m 1
 50 400 l 1
 550 400 l 1
 550 300 l 1
 50 300 l 1
EndSplineSet
EndChar

StartChar: radical
Encoding: 8730 8730 212
Width: 600
Flags: HMW
LayerCount: 2
Fore
SplineSet
50 200 m 1
 50 300 l 1
 150 300 l 1
 150 250 l 1
 200 250 l 1
 200 200 l 1
 250 200 l 1
 250 700 l 1
 550 700 l 1
 550 600 l 1
 350 600 l 1
 350 0 l 1
 250 0 l 1
 250 50 l 1
 200 50 l 1
 200 100 l 1
 150 100 l 1
 150 150 l 1
 100 150 l 1
 100 200 l 1
 50 200 l 1
EndSplineSet
EndChar

StartChar: infinity
Encoding: 8734 8734 213
Width: 600
Flags: HMW
LayerCount: 2
Fore
SplineSet
450 250 m 1
 450 350 l 1
 350 350 l 1
 350 250 l 1
 450 250 l 1
550 400 m 1
 550 200 l 1
 500 200 l 1
 500 150 l 1
 450 150 l 1
 450 100 l 1
 350 100 l 1
 350 150 l 1
 250 150 l 1
 250 100 l 1
 150 100 l 1
 150 150 l 1
 100 150 l 1
 100 200 l 1
 50 200 l 1
 50 400 l 1
 100 400 l 1
 100 450 l 1
 150 450 l 1
 150 500 l 1
 250 500 l 1
 250 450 l 1
 350 450 l 1
 350 500 l 1
 450 500 l 1
 450 450 l 1
 500 450 l 1
 500 400 l 1
 550 400 l 1
250 250 m 1
 250 350 l 1
 150 350 l 1
 150 250 l 1
 250 250 l 1
EndSplineSet
EndChar

StartChar: integral
Encoding: 8747 8747 214
Width: 600
Flags: HMW
LayerCount: 2
Fore
SplineSet
50 0 m 1
 50 100 l 1
 150 100 l 1
 150 50 l 1
 250 50 l 1
 250 700 l 1
 300 700 l 1
 300 750 l 1
 350 750 l 1
 350 800 l 1
 450 800 l 1
 450 750 l 1
 500 750 l 1
 500 700 l 1
 550 700 l 1
 550 600 l 1
 450 600 l 1
 450 650 l 1
 350 650 l 1
 350 0 l 1
 300 0 l 1
 300 -50 l 1
 250 -50 l 1
 250 -100 l 1
 150 -100 l 1
 150 -50 l 1
 100 -50 l 1
 100 -0 l 1
 50 0 l 1
EndSplineSet
EndChar

StartChar: notequal
Encoding: 8800 8800 215
Width: 600
Flags: HMW
LayerCount: 2
Fore
SplineSet
50 0 m 1
 50 100 l 1
 100 100 l 1
 100 150 l 1
 150 150 l 1
 150 200 l 1
 50 200 l 1
 50 300 l 1
 250 300 l 1
 250 400 l 1
 50 400 l 1
 50 500 l 1
 350 500 l 1
 350 600 l 1
 400 600 l 1
 400 650 l 1
 450 650 l 1
 450 700 l 1
 550 700 l 1
 550 600 l 1
 500 600 l 1
 500 550 l 1
 450 550 l 1
 450 500 l 1
 550 500 l 1
 550 400 l 1
 350 400 l 1
 350 300 l 1
 550 300 l 1
 550 200 l 1
 250 200 l 1
 250 100 l 1
 200 100 l 1
 200 50 l 1
 150 50 l 1
 150 0 l 1
 50 0 l 1
EndSplineSet
EndChar

StartChar: lozenge
Encoding: 9674 9674 216
Width: 600
Flags: HMW
LayerCount: 2
Fore
SplineSet
450 250 m 1
 450 450 l 1
 400 450 l 1
 400 500 l 1
 350 500 l 1
 350 550 l 1
 250 550 l 1
 250 500 l 1
 200 500 l 1
 200 450 l 1
 150 450 l 1
 150 250 l 1
 200 250 l 1
 200 200 l 1
 250 200 l 1
 250 150 l 1
 350 150 l 1
 350 200 l 1
 400 200 l 1
 400 250 l 1
 450 250 l 1
550 500 m 1
 550 200 l 1
 500 200 l 1
 500 150 l 1
 450 150 l 1
 450 100 l 1
 400 100 l 1
 400 50 l 1
 350 50 l 1
 350 0 l 1
 250 0 l 1
 250 50 l 1
 200 50 l 1
 200 100 l 1
 150 100 l 1
 150 150 l 1
 100 150 l 1
 100 200 l 1
 50 200 l 1
 50 500 l 1
 100 500 l 1
 100 550 l 1
 150 550 l 1
 150 600 l 1
 200 600 l 1
 200 650 l 1
 250 650 l 1
 250 700 l 1
 350 700 l 1
 350 650 l 1
 400 650 l 1
 400 600 l 1
 450 600 l 1
 450 550 l 1
 500 550 l 1
 500 500 l 1
 550 500 l 1
EndSplineSet
EndChar

StartChar: uniFB01
Encoding: 64257 64257 217
Width: 600
Flags: HMW
LayerCount: 2
Fore
SplineSet
50 300 m 1
 50 400 l 1
 150 400 l 1
 150 600 l 1
 200 600 l 1
 200 650 l 1
 250 650 l 1
 250 700 l 1
 450 700 l 1
 450 650 l 1
 500 650 l 1
 500 600 l 1
 550 600 l 1
 550 500 l 1
 450 500 l 1
 450 550 l 1
 400 550 l 1
 400 600 l 1
 300 600 l 1
 300 550 l 1
 250 550 l 1
 250 400 l 1
 550 400 l 1
 550 0 l 1
 450 0 l 1
 450 300 l 1
 250 300 l 1
 250 0 l 1
 150 0 l 1
 150 300 l 1
 50 300 l 1
EndSplineSet
EndChar

StartChar: uniFB02
Encoding: 64258 64258 218
Width: 600
Flags: HMW
LayerCount: 2
Fore
SplineSet
50 300 m 1
 50 400 l 1
 150 400 l 1
 150 600 l 1
 200 600 l 1
 200 650 l 1
 250 650 l 1
 250 700 l 1
 550 700 l 1
 550 0 l 1
 450 0 l 1
 450 600 l 1
 300 600 l 1
 300 550 l 1
 250 550 l 1
 250 400 l 1
 350 400 l 1
 350 300 l 1
 250 300 l 1
 250 0 l 1
 150 0 l 1
 150 300 l 1
 50 300 l 1
EndSplineSet
EndChar

StartChar: Aring
Encoding: 197 197 235
Width: 600
Flags: HM
LayerCount: 2
Fore
SplineSet
150 800 m 1
 150 900 l 1
 200 900 l 1
 200 950 l 1
 250 950 l 1
 250 1000 l 1
 350 1000 l 1
 350 950 l 1
 400 950 l 1
 400 900 l 1
 450 900 l 1
 450 800 l 1
 400 800 l 1
 400 750 l 1
 350 750 l 1
 350 650 l 1
 400 650 l 1
 400 600 l 1
 450 600 l 1
 450 550 l 1
 500 550 l 1
 500 500 l 1
 550 500 l 1
 550 0 l 1
 450 0 l 1
 450 200 l 1
 150 200 l 1
 150 0 l 1
 50 0 l 1
 50 500 l 1
 100 500 l 1
 100 550 l 1
 150 550 l 1
 150 600 l 1
 200 600 l 1
 200 650 l 1
 250 650 l 1
 250 750 l 1
 200 750 l 1
 200 800 l 1
 150 800 l 1
250 800 m 1
 350 800 l 1
 350 900 l 1
 250 900 l 1
 250 800 l 1
150 450 m 1
 150 300 l 1
 450 300 l 1
 450 450 l 1
 400 450 l 1
 400 500 l 1
 350 500 l 1
 350 550 l 1
 250 550 l 1
 250 500 l 1
 200 500 l 1
 200 450 l 1
 150 450 l 1
EndSplineSet
EndChar

StartChar: dotaccent
Encoding: 729 729 242
Width: 200
Flags: HMW
LayerCount: 2
Fore
SplineSet
50 600 m 1
 50 700 l 1
 150 700 l 1
 150 600 l 1
 50 600 l 1
EndSplineSet
EndChar

StartChar: ellipsis
Encoding: 8230 8230 251
Width: 600
VWidth: 0
Flags: HMW
LayerCount: 2
Fore
SplineSet
250 0 m 1
 250 100 l 1
 350 100 l 1
 350 0 l 1
 250 0 l 1
450 0 m 1
 450 100 l 1
 550 100 l 1
 550 0 l 1
 450 0 l 1
50 0 m 1
 50 100 l 1
 150 100 l 1
 150 0 l 1
 50 0 l 1
EndSplineSet
EndChar

StartChar: perthousand
Encoding: 8240 8240 252
Width: 900
Flags: HMW
LayerCount: 2
Fore
SplineSet
50 100 m 1
 50 200 l 1
 100 200 l 1
 100 250 l 1
 150 250 l 1
 150 300 l 1
 200 300 l 1
 200 350 l 1
 250 350 l 1
 250 400 l 1
 300 400 l 1
 300 450 l 1
 350 450 l 1
 350 500 l 1
 400 500 l 1
 400 550 l 1
 450 550 l 1
 450 600 l 1
 550 600 l 1
 550 500 l 1
 500 500 l 1
 500 450 l 1
 450 450 l 1
 450 400 l 1
 400 400 l 1
 400 350 l 1
 350 350 l 1
 350 300 l 1
 300 300 l 1
 300 250 l 1
 250 250 l 1
 250 200 l 1
 200 200 l 1
 200 150 l 1
 150 150 l 1
 150 100 l 1
 50 100 l 1
650 200 m 1
 850 200 l 1
 850 0 l 1
 650 0 l 1
 650 200 l 1
50 700 m 1
 250 700 l 1
 250 500 l 1
 50 500 l 1
 50 700 l 1
350 200 m 1
 550 200 l 1
 550 0 l 1
 350 0 l 1
 350 200 l 1
EndSplineSet
EndChar

StartChar: estimated
Encoding: 8494 8494 254
Width: 891
Flags: HMW
LayerCount: 2
Fore
SplineSet
700 550 m 2
 700 570 700 580 680 600 c 0
 620 660 540 690 450 690 c 0
 360 690 270 660 210 600 c 0
 190 580 190 570 190 550 c 2
 190 360 l 1
 700 360 l 1
 700 550 l 2
190 340 m 1
 190 150 l 2
 190 130 190 120 210 100 c 0
 270 40 360 10 450 10 c 0
 560 10 650 60 710 130 c 1
 770 130 l 1
 690 40 580 -20 450 -20 c 0
 240 -20 40 140 40 350 c 0
 40 560 240 720 450 720 c 0
 670 720 850 560 850 340 c 1
 190 340 l 1
EndSplineSet
EndChar

StartChar: uni2219
Encoding: 8729 8729 256
Width: 200
VWidth: 0
Flags: HMW
LayerCount: 2
Fore
SplineSet
50 300 m 1
 50 400 l 1
 150 400 l 1
 150 300 l 1
 50 300 l 1
EndSplineSet
EndChar

StartChar: lessequal
Encoding: 8804 8804 258
Width: 400
Flags: HMW
LayerCount: 2
Fore
SplineSet
50 0 m 1
 50 100 l 1
 350 100 l 1
 350 0 l 1
 50 0 l 1
EndSplineSet
Refer: 28 60 N 1 0 0 1 0 100 2
EndChar

StartChar: greaterequal
Encoding: 8805 8805 259
Width: 400
Flags: HMW
LayerCount: 2
Fore
SplineSet
50 0 m 1
 50 100 l 1
 350 100 l 1
 350 0 l 1
 50 0 l 1
EndSplineSet
Refer: 30 62 N 1 0 0 1 0 100 2
EndChar

StartChar: uni25CC
Encoding: 9676 9676 261
Width: 600
Flags: HMW
AnchorPoint: "marks_aboveright" 550 450 basechar 0
AnchorPoint: "ogonek" 400 0 basechar 0
AnchorPoint: "marks_below" 300 0 basechar 0
AnchorPoint: "marks_above" 300 600 basechar 0
LayerCount: 2
Fore
SplineSet
250 0 m 1
 250 100 l 1
 350 100 l 1
 350 0 l 1
 250 0 l 1
450 100 m 1
 450 200 l 1
 550 200 l 1
 550 100 l 1
 450 100 l 1
50 100 m 1
 50 200 l 1
 150 200 l 1
 150 100 l 1
 50 100 l 1
450 300 m 1
 450 400 l 1
 550 400 l 1
 550 300 l 1
 450 300 l 1
50 300 m 1
 50 400 l 1
 150 400 l 1
 150 300 l 1
 50 300 l 1
250 400 m 1
 250 500 l 1
 350 500 l 1
 350 400 l 1
 250 400 l 1
EndSplineSet
EndChar

StartChar: dcroat
Encoding: 273 273 262
Width: 600
Flags: HMW
AnchorPoint: "marks_below" 300 0 basechar 0
AnchorPoint: "marks_above" 300 800 basechar 0
LayerCount: 2
Fore
SplineSet
250 500 m 1
 250 600 l 1
 350 600 l 1
 350 700 l 1
 450 700 l 1
 450 600 l 1
 550 600 l 1
 550 500 l 1
 450 500 l 1
 450 0 l 1
 150 0 l 1
 150 50 l 1
 100 50 l 1
 100 100 l 1
 50 100 l 1
 50 300 l 1
 100 300 l 1
 100 350 l 1
 150 350 l 1
 150 400 l 1
 350 400 l 1
 350 500 l 1
 250 500 l 1
200 100 m 1
 350 100 l 1
 350 300 l 1
 200 300 l 1
 200 250 l 1
 150 250 l 1
 150 150 l 1
 200 150 l 1
 200 100 l 1
EndSplineSet
EndChar

StartChar: Hbar
Encoding: 294 294 263
Width: 600
Flags: HMW
AnchorPoint: "marks_below" 300 0 basechar 0
AnchorPoint: "marks_above" 300 800 basechar 0
LayerCount: 2
Fore
SplineSet
450 0 m 1
 450 300 l 1
 150 300 l 1
 150 0 l 1
 50 0 l 1
 50 700 l 1
 150 700 l 1
 150 600 l 1
 450 600 l 1
 450 700 l 1
 550 700 l 1
 550 0 l 1
 450 0 l 1
150 400 m 1
 450 400 l 1
 450 500 l 1
 150 500 l 1
 150 400 l 1
EndSplineSet
EndChar

StartChar: hbar
Encoding: 295 295 264
Width: 600
Flags: HMW
AnchorPoint: "marks_below" 300 0 basechar 0
AnchorPoint: "marks_above" 300 800 basechar 0
LayerCount: 2
Fore
SplineSet
50 500 m 1
 50 600 l 1
 150 600 l 1
 150 700 l 1
 250 700 l 1
 250 600 l 1
 350 600 l 1
 350 500 l 1
 250 500 l 1
 250 400 l 1
 450 400 l 1
 450 350 l 1
 500 350 l 1
 500 300 l 1
 550 300 l 1
 550 0 l 1
 450 0 l 1
 450 250 l 1
 400 250 l 1
 400 300 l 1
 250 300 l 1
 250 0 l 1
 150 0 l 1
 150 500 l 1
 50 500 l 1
EndSplineSet
EndChar

StartChar: IJ
Encoding: 306 306 265
Width: 600
Flags: HMW
AnchorPoint: "marks_below" 300 0 basechar 0
AnchorPoint: "marks_above" 300 800 basechar 0
LayerCount: 2
Fore
SplineSet
250 100 m 1
 250 200 l 1
 350 200 l 1
 350 150 l 1
 450 150 l 1
 450 700 l 1
 550 700 l 1
 550 100 l 1
 500 100 l 1
 500 50 l 1
 450 50 l 1
 450 0 l 1
 350 0 l 1
 350 50 l 1
 300 50 l 1
 300 100 l 1
 250 100 l 1
150 700 m 1
 150 0 l 1
 50 0 l 1
 50 700 l 1
 150 700 l 1
EndSplineSet
EndChar

StartChar: ij
Encoding: 307 307 266
Width: 600
Flags: HMW
LayerCount: 2
Fore
SplineSet
150 600 m 1
 150 700 l 1
 250 700 l 1
 250 600 l 1
 150 600 l 1
50 400 m 1
 50 500 l 1
 250 500 l 1
 250 100 l 1
 350 100 l 1
 350 0 l 1
 50 0 l 1
 50 100 l 1
 150 100 l 1
 150 400 l 1
 50 400 l 1
250 -200 m 1
 250 -100 l 1
 400 -100 l 1
 400 -50 l 1
 450 -50 l 1
 450 400 l 1
 350 400 l 1
 350 500 l 1
 550 500 l 1
 550 -100 l 1
 500 -100 l 1
 500 -150 l 1
 450 -150 l 1
 450 -200 l 1
 250 -200 l 1
450 600 m 1
 450 700 l 1
 550 700 l 1
 550 600 l 1
 450 600 l 1
EndSplineSet
EndChar

StartChar: Eng
Encoding: 330 330 267
Width: 600
Flags: HMW
AnchorPoint: "marks_below" 300 0 basechar 0
AnchorPoint: "marks_above" 300 800 basechar 0
LayerCount: 2
Fore
SplineSet
250 -200 m 1
 250 -100 l 1
 400 -100 l 1
 400 -50 l 1
 450 -50 l 1
 450 550 l 1
 400 550 l 1
 400 600 l 1
 300 600 l 1
 300 550 l 1
 250 550 l 1
 250 500 l 1
 200 500 l 1
 200 450 l 1
 150 450 l 1
 150 0 l 1
 50 0 l 1
 50 700 l 1
 150 700 l 1
 150 600 l 1
 200 600 l 1
 200 650 l 1
 250 650 l 1
 250 700 l 1
 450 700 l 1
 450 650 l 1
 500 650 l 1
 500 600 l 1
 550 600 l 1
 550 -100 l 1
 500 -100 l 1
 500 -150 l 1
 450 -150 l 1
 450 -200 l 1
 250 -200 l 1
EndSplineSet
EndChar

StartChar: eng
Encoding: 331 331 268
Width: 600
Flags: HMW
AnchorPoint: "marks_above" 300 600 basechar 0
LayerCount: 2
Fore
SplineSet
250 -200 m 1
 250 -100 l 1
 400 -100 l 1
 400 -50 l 1
 450 -50 l 1
 450 350 l 1
 400 350 l 1
 400 400 l 1
 300 400 l 1
 300 350 l 1
 250 350 l 1
 250 300 l 1
 150 300 l 1
 150 0 l 1
 50 0 l 1
 50 500 l 1
 150 500 l 1
 150 400 l 1
 200 400 l 1
 200 450 l 1
 250 450 l 1
 250 500 l 1
 450 500 l 1
 450 450 l 1
 500 450 l 1
 500 400 l 1
 550 400 l 1
 550 -100 l 1
 500 -100 l 1
 500 -150 l 1
 450 -150 l 1
 450 -200 l 1
 250 -200 l 1
EndSplineSet
EndChar

StartChar: uni0237
Encoding: 567 567 269
Width: 500
Flags: HMW
AnchorPoint: "marks_above" 400 600 basechar 0
LayerCount: 2
Fore
SplineSet
50 -100 m 1
 50 0 l 1
 150 0 l 1
 150 -50 l 1
 200 -50 l 1
 200 -100 l 1
 300 -100 l 1
 300 -50 l 1
 350 -50 l 1
 350 400 l 1
 250 400 l 1
 250 500 l 1
 450 500 l 1
 450 -100 l 1
 400 -100 l 1
 400 -150 l 1
 350 -150 l 1
 350 -200 l 1
 150 -200 l 1
 150 -150 l 1
 100 -150 l 1
 100 -100 l 1
 50 -100 l 1
EndSplineSet
EndChar

StartChar: uni1E9E
Encoding: 7838 7838 270
Width: 600
Flags: HMW
AnchorPoint: "marks_below" 300 0 basechar 0
AnchorPoint: "marks_above" 300 800 basechar 0
LayerCount: 2
Fore
SplineSet
250 0 m 1
 250 100 l 1
 400 100 l 1
 400 150 l 1
 450 150 l 1
 450 250 l 1
 400 250 l 1
 400 300 l 1
 250 300 l 1
 250 400 l 1
 300 400 l 1
 300 450 l 1
 350 450 l 1
 350 500 l 1
 400 500 l 1
 400 550 l 1
 450 550 l 1
 450 600 l 1
 200 600 l 1
 200 550 l 1
 150 550 l 1
 150 0 l 1
 50 0 l 1
 50 600 l 1
 100 600 l 1
 100 650 l 1
 150 650 l 1
 150 700 l 1
 550 700 l 1
 550 500 l 1
 500 500 l 1
 500 450 l 1
 450 450 l 1
 450 350 l 1
 500 350 l 1
 500 300 l 1
 550 300 l 1
 550 100 l 1
 500 100 l 1
 500 50 l 1
 450 50 l 1
 450 0 l 1
 250 0 l 1
EndSplineSet
EndChar

StartChar: uni20BA
Encoding: 8378 8378 271
Width: 600
Flags: HMW
LayerCount: 2
Fore
SplineSet
50 300 m 1
 50 400 l 1
 150 400 l 1
 150 500 l 1
 50 500 l 1
 50 600 l 1
 150 600 l 1
 150 700 l 1
 250 700 l 1
 250 600 l 1
 350 600 l 1
 350 500 l 1
 250 500 l 1
 250 400 l 1
 350 400 l 1
 350 300 l 1
 250 300 l 1
 250 100 l 1
 400 100 l 1
 400 150 l 1
 450 150 l 1
 450 300 l 1
 550 300 l 1
 550 100 l 1
 500 100 l 1
 500 50 l 1
 450 50 l 1
 450 0 l 1
 150 0 l 1
 150 300 l 1
 50 300 l 1
EndSplineSet
EndChar

StartChar: uni20BD
Encoding: 8381 8381 272
Width: 600
Flags: HMW
LayerCount: 2
Fore
SplineSet
50 100 m 1
 50 200 l 1
 150 200 l 1
 150 700 l 1
 450 700 l 1
 450 650 l 1
 500 650 l 1
 500 600 l 1
 550 600 l 1
 550 400 l 1
 500 400 l 1
 500 350 l 1
 450 350 l 1
 450 300 l 1
 250 300 l 1
 250 200 l 1
 350 200 l 1
 350 100 l 1
 250 100 l 1
 250 0 l 1
 150 0 l 1
 150 100 l 1
 50 100 l 1
250 400 m 1
 400 400 l 1
 400 450 l 1
 450 450 l 1
 450 550 l 1
 400 550 l 1
 400 600 l 1
 250 600 l 1
 250 400 l 1
EndSplineSet
EndChar

StartChar: uni0328
Encoding: 808 808 279
Width: 0
Flags: HMW
AnchorPoint: "ogonek" 0 0 mark 0
LayerCount: 2
Fore
SplineSet
-50 -200 m 1
 -50 0 l 1
 50 0 l 1
 50 -100 l 1
 150 -100 l 1
 150 -200 l 1
 -50 -200 l 1
EndSplineSet
EndChar

StartChar: aogonek
Encoding: 261 261 281
Width: 600
Flags: HM
LayerCount: 2
Fore
SplineSet
150 400 m 1
 150 500 l 1
 450 500 l 1
 450 450 l 1
 500 450 l 1
 500 400 l 1
 550 400 l 1
 550 0 l 1
 450 0 l 1
 450 -100 l 1
 550 -100 l 1
 550 -200 l 1
 350 -200 l 1
 350 0 l 1
 150 0 l 1
 150 50 l 1
 100 50 l 1
 100 100 l 1
 50 100 l 1
 50 200 l 1
 100 200 l 1
 100 250 l 1
 150 250 l 1
 150 300 l 1
 450 300 l 1
 450 350 l 1
 400 350 l 1
 400 400 l 1
 150 400 l 1
450 200 m 1
 200 200 l 1
 200 100 l 1
 450 100 l 1
 450 200 l 1
EndSplineSet
EndChar

StartChar: uni0307
Encoding: 775 775 284
Width: 0
Flags: HMW
AnchorPoint: "marks_above" 0 600 mark 0
LayerCount: 2
Fore
SplineSet
-50 600 m 1
 -50 700 l 1
 50 700 l 1
 50 600 l 1
 -50 600 l 1
EndSplineSet
EndChar

StartChar: dcaron
Encoding: 271 271 291
Width: 800
Flags: HMW
LayerCount: 2
Fore
SplineSet
750 700 m 1
 750 500 l 1
 700 500 l 1
 700 450 l 1
 650 450 l 1
 650 400 l 1
 550 400 l 1
 550 0 l 1
 450 0 l 1
 450 100 l 1
 400 100 l 1
 400 50 l 1
 350 50 l 1
 350 0 l 1
 150 0 l 1
 150 50 l 1
 100 50 l 1
 100 100 l 1
 50 100 l 1
 50 400 l 1
 100 400 l 1
 100 450 l 1
 150 450 l 1
 150 500 l 1
 350 500 l 1
 350 450 l 1
 400 450 l 1
 400 400 l 1
 450 400 l 1
 450 700 l 1
 550 700 l 1
 550 500 l 1
 600 500 l 1
 600 550 l 1
 650 550 l 1
 650 700 l 1
 750 700 l 1
300 400 m 1
 200 400 l 1
 200 350 l 1
 150 350 l 1
 150 150 l 1
 200 150 l 1
 200 100 l 1
 300 100 l 1
 300 150 l 1
 350 150 l 1
 350 200 l 1
 400 200 l 1
 400 300 l 1
 350 300 l 1
 350 350 l 1
 300 350 l 1
 300 400 l 1
EndSplineSet
EndChar

StartChar: Eogonek
Encoding: 280 280 297
Width: 600
Flags: HM
LayerCount: 2
Fore
SplineSet
550 -200 m 1
 350 -200 l 1
 350 0 l 1
 50 0 l 1
 50 700 l 1
 550 700 l 1
 550 600 l 1
 150 600 l 1
 150 400 l 1
 450 400 l 1
 450 300 l 1
 150 300 l 1
 150 100 l 1
 550 100 l 1
 550 0 l 1
 450 0 l 1
 450 -100 l 1
 550 -100 l 1
 550 -200 l 1
EndSplineSet
EndChar

StartChar: eogonek
Encoding: 281 281 298
Width: 600
Flags: HM
LayerCount: 2
Fore
SplineSet
550 -200 m 1
 350 -200 l 1
 350 0 l 1
 150 0 l 1
 150 50 l 1
 100 50 l 1
 100 100 l 1
 50 100 l 1
 50 400 l 1
 100 400 l 1
 100 450 l 1
 150 450 l 1
 150 500 l 1
 450 500 l 1
 450 450 l 1
 500 450 l 1
 500 400 l 1
 550 400 l 1
 550 200 l 1
 150 200 l 1
 150 150 l 1
 200 150 l 1
 200 100 l 1
 450 100 l 1
 450 -100 l 1
 550 -100 l 1
 550 -200 l 1
400 400 m 1
 200 400 l 1
 200 350 l 1
 150 350 l 1
 150 300 l 1
 450 300 l 1
 450 350 l 1
 400 350 l 1
 400 400 l 1
EndSplineSet
EndChar

StartChar: uni0122
Encoding: 290 290 306
Width: 600
Flags: HM
LayerCount: 2
Fore
SplineSet
150 -200 m 1
 150 -100 l 1
 200 -100 l 1
 200 -50 l 1
 250 -50 l 1
 250 0 l 1
 150 0 l 1
 150 50 l 1
 100 50 l 1
 100 100 l 1
 50 100 l 1
 50 600 l 1
 100 600 l 1
 100 650 l 1
 150 650 l 1
 150 700 l 1
 450 700 l 1
 450 650 l 1
 500 650 l 1
 500 600 l 1
 550 600 l 1
 550 500 l 1
 450 500 l 1
 450 550 l 1
 400 550 l 1
 400 600 l 1
 200 600 l 1
 200 550 l 1
 150 550 l 1
 150 150 l 1
 200 150 l 1
 200 100 l 1
 450 100 l 1
 450 300 l 1
 350 300 l 1
 350 400 l 1
 550 400 l 1
 550 0 l 1
 520 0 480 0 450 0 c 2
 350 0 l 1
 350 -100 l 1
 300 -100 l 1
 300 -150 l 1
 250 -150 l 1
 250 -200 l 1
 150 -200 l 1
EndSplineSet
EndChar

StartChar: Iogonek
Encoding: 302 302 311
Width: 400
Flags: HM
LayerCount: 2
Fore
SplineSet
50 600 m 1
 50 700 l 1
 350 700 l 1
 350 600 l 1
 250 600 l 1
 250 100 l 1
 350 100 l 1
 350 0 l 1
 250 0 l 1
 250 -100 l 1
 350 -100 l 1
 350 -200 l 1
 150 -200 l 1
 150 0 l 1
 50 0 l 1
 50 100 l 1
 150 100 l 1
 150 600 l 1
 50 600 l 1
EndSplineSet
EndChar

StartChar: iogonek
Encoding: 303 303 312
Width: 400
Flags: HM
LayerCount: 2
Fore
SplineSet
150 600 m 1
 150 700 l 1
 250 700 l 1
 250 600 l 1
 150 600 l 1
50 400 m 1
 50 500 l 1
 250 500 l 1
 250 100 l 1
 350 100 l 1
 350 0 l 1
 250 0 l 1
 250 -100 l 1
 350 -100 l 1
 350 -200 l 1
 150 -200 l 1
 150 0 l 1
 50 0 l 1
 50 100 l 1
 150 100 l 1
 150 400 l 1
 50 400 l 1
EndSplineSet
EndChar

StartChar: uni013B
Encoding: 315 315 318
Width: 600
Flags: HM
LayerCount: 2
Fore
SplineSet
150 -200 m 1
 150 -100 l 1
 200 -100 l 1
 200 -50 l 1
 250 -50 l 1
 250 0 l 1
 50 0 l 1
 50 700 l 1
 150 700 l 1
 150 100 l 1
 550 100 l 1
 550 0 l 1
 520 0 480 0 450 0 c 2
 350 0 l 1
 350 -100 l 1
 300 -100 l 1
 300 -150 l 1
 250 -150 l 1
 250 -200 l 1
 150 -200 l 1
EndSplineSet
EndChar

StartChar: uni013C
Encoding: 316 316 319
Width: 400
Flags: HM
LayerCount: 2
Fore
SplineSet
50 -200 m 1
 50 -100 l 1
 100 -100 l 1
 100 -50 l 1
 150 -50 l 1
 150 0 l 1
 50 0 l 1
 50 100 l 1
 150 100 l 1
 150 600 l 1
 50 600 l 1
 50 700 l 1
 250 700 l 1
 250 100 l 1
 350 100 l 1
 350 0 l 1
 250 0 l 1
 250 -100 l 1
 200 -100 l 1
 200 -150 l 1
 150 -150 l 1
 150 -200 l 1
 50 -200 l 1
EndSplineSet
EndChar

StartChar: lcaron
Encoding: 318 318 321
Width: 500
Flags: HMW
LayerCount: 2
Fore
SplineSet
50 600 m 1
 50 700 l 1
 250 700 l 1
 250 500 l 1
 300 500 l 1
 300 550 l 1
 350 550 l 1
 350 700 l 1
 450 700 l 1
 450 500 l 1
 400 500 l 1
 400 450 l 1
 350 450 l 1
 350 400 l 1
 250 400 l 1
 250 100 l 1
 350 100 l 1
 350 0 l 1
 50 0 l 1
 50 100 l 1
 150 100 l 1
 150 600 l 1
 50 600 l 1
EndSplineSet
LCarets2: 1 0
EndChar

StartChar: Scedilla
Encoding: 350 350 341
Width: 600
Flags: HM
LayerCount: 2
Fore
SplineSet
150 -200 m 1
 150 -100 l 1
 250 -100 l 1
 250 0 l 1
 150 0 l 1
 150 50 l 1
 100 50 l 1
 100 100 l 1
 50 100 l 1
 50 200 l 1
 150 200 l 1
 150 150 l 1
 200 150 l 1
 200 100 l 1
 400 100 l 1
 400 150 l 1
 450 150 l 1
 450 250 l 1
 400 250 l 1
 400 300 l 1
 150 300 l 1
 150 350 l 1
 100 350 l 1
 100 400 l 1
 50 400 l 1
 50 600 l 1
 100 600 l 1
 100 650 l 1
 150 650 l 1
 150 700 l 1
 450 700 l 1
 450 650 l 1
 500 650 l 1
 500 600 l 1
 550 600 l 1
 550 500 l 1
 450 500 l 1
 450 550 l 1
 400 550 l 1
 400 600 l 1
 200 600 l 1
 200 550 l 1
 150 550 l 1
 150 450 l 1
 200 450 l 1
 200 400 l 1
 450 400 l 1
 450 350 l 1
 500 350 l 1
 500 300 l 1
 550 300 l 1
 550 100 l 1
 500 100 l 1
 500 50 l 1
 450 50 l 1
 450 0 l 1
 350 0 l 1
 350 -200 l 1
 150 -200 l 1
EndSplineSet
EndChar

StartChar: scedilla
Encoding: 351 351 342
Width: 600
Flags: HM
LayerCount: 2
Fore
SplineSet
150 -200 m 1
 150 -100 l 1
 250 -100 l 1
 250 0 l 1
 50 0 l 1
 50 100 l 1
 400 100 l 1
 400 200 l 1
 150 200 l 1
 150 250 l 1
 100 250 l 1
 100 300 l 1
 50 300 l 1
 50 400 l 1
 100 400 l 1
 100 450 l 1
 150 450 l 1
 150 500 l 1
 550 500 l 1
 550 400 l 1
 200 400 l 1
 200 300 l 1
 450 300 l 1
 450 250 l 1
 500 250 l 1
 500 200 l 1
 550 200 l 1
 550 100 l 1
 500 100 l 1
 500 50 l 1
 450 50 l 1
 450 0 l 1
 350 0 l 1
 350 -200 l 1
 150 -200 l 1
EndSplineSet
EndChar

StartChar: uni0162
Encoding: 354 354 343
Width: 600
Flags: HMW
LayerCount: 2
Fore
SplineSet
150 -200 m 1
 150 -100 l 1
 250 -100 l 1
 250 600 l 1
 50 600 l 1
 50 700 l 1
 550 700 l 1
 550 600 l 1
 350 600 l 1
 350 -200 l 1
 150 -200 l 1
EndSplineSet
EndChar

StartChar: uni0163
Encoding: 355 355 344
Width: 600
Flags: HM
LayerCount: 2
Fore
SplineSet
150 -200 m 1
 150 -100 l 1
 250 -100 l 1
 250 50 l 1
 200 50 l 1
 200 100 l 1
 150 100 l 1
 150 400 l 1
 50 400 l 1
 50 500 l 1
 150 500 l 1
 150 700 l 1
 250 700 l 1
 250 500 l 1
 450 500 l 1
 450 400 l 1
 250 400 l 1
 250 150 l 1
 300 150 l 1
 300 100 l 1
 400 100 l 1
 400 150 l 1
 450 150 l 1
 450 200 l 1
 550 200 l 1
 550 100 l 1
 500 100 l 1
 500 50 l 1
 450 50 l 1
 450 0 l 1
 350 0 l 1
 350 -200 l 1
 150 -200 l 1
EndSplineSet
EndChar

StartChar: Uogonek
Encoding: 370 370 355
Width: 600
Flags: HM
LayerCount: 2
Fore
SplineSet
450 -200 m 1
 250 -200 l 1
 250 0 l 1
 150 0 l 1
 150 50 l 1
 100 50 l 1
 100 100 l 1
 50 100 l 1
 50 700 l 1
 150 700 l 1
 150 150 l 1
 200 150 l 1
 200 100 l 1
 400 100 l 1
 400 150 l 1
 450 150 l 1
 450 700 l 1
 550 700 l 1
 550 100 l 1
 500 100 l 1
 500 50 l 1
 450 50 l 1
 450 0 l 1
 350 0 l 1
 350 -100 l 1
 450 -100 l 1
 450 -200 l 1
EndSplineSet
EndChar

StartChar: uni0218
Encoding: 536 536 367
Width: 600
Flags: HM
LayerCount: 2
Fore
SplineSet
150 -200 m 1
 150 -100 l 1
 200 -100 l 1
 200 -50 l 1
 250 -50 l 1
 250 0 l 1
 150 0 l 1
 150 50 l 1
 100 50 l 1
 100 100 l 1
 50 100 l 1
 50 200 l 1
 150 200 l 1
 150 150 l 1
 200 150 l 1
 200 100 l 1
 400 100 l 1
 400 150 l 1
 450 150 l 1
 450 250 l 1
 400 250 l 1
 400 300 l 1
 150 300 l 1
 150 350 l 1
 100 350 l 1
 100 400 l 1
 50 400 l 1
 50 600 l 1
 100 600 l 1
 100 650 l 1
 150 650 l 1
 150 700 l 1
 450 700 l 1
 450 650 l 1
 500 650 l 1
 500 600 l 1
 550 600 l 1
 550 500 l 1
 450 500 l 1
 450 550 l 1
 400 550 l 1
 400 600 l 1
 200 600 l 1
 200 550 l 1
 150 550 l 1
 150 450 l 1
 200 450 l 1
 200 400 l 1
 450 400 l 1
 450 350 l 1
 500 350 l 1
 500 300 l 1
 550 300 l 1
 550 100 l 1
 500 100 l 1
 500 50 l 1
 450 50 l 1
 450 0 l 1
 350 0 l 1
 350 -100 l 1
 300 -100 l 1
 300 -150 l 1
 250 -150 l 1
 250 -200 l 1
 150 -200 l 1
EndSplineSet
EndChar

StartChar: uni0219
Encoding: 537 537 368
Width: 600
Flags: HM
LayerCount: 2
Fore
SplineSet
150 -200 m 1
 150 -100 l 1
 200 -100 l 1
 200 -50 l 1
 250 -50 l 1
 250 0 l 1
 50 0 l 1
 50 100 l 1
 400 100 l 1
 400 200 l 1
 150 200 l 1
 150 250 l 1
 100 250 l 1
 100 300 l 1
 50 300 l 1
 50 400 l 1
 100 400 l 1
 100 450 l 1
 150 450 l 1
 150 500 l 1
 550 500 l 1
 550 400 l 1
 200 400 l 1
 200 300 l 1
 450 300 l 1
 450 250 l 1
 500 250 l 1
 500 200 l 1
 550 200 l 1
 550 100 l 1
 500 100 l 1
 500 50 l 1
 450 50 l 1
 450 0 l 1
 350 0 l 1
 350 -100 l 1
 300 -100 l 1
 300 -150 l 1
 250 -150 l 1
 250 -200 l 1
 150 -200 l 1
EndSplineSet
EndChar

StartChar: uni021A
Encoding: 538 538 369
Width: 600
Flags: HM
LayerCount: 2
Fore
SplineSet
150 -200 m 1
 150 -100 l 1
 200 -100 l 1
 200 -50 l 1
 250 -50 l 1
 250 600 l 1
 50 600 l 1
 50 700 l 1
 550 700 l 1
 550 600 l 1
 350 600 l 1
 350 -100 l 1
 300 -100 l 1
 300 -150 l 1
 250 -150 l 1
 250 -200 l 1
 150 -200 l 1
EndSplineSet
EndChar

StartChar: uni021B
Encoding: 539 539 370
Width: 600
Flags: HM
LayerCount: 2
Fore
SplineSet
150 -200 m 1
 150 -100 l 1
 200 -100 l 1
 200 -50 l 1
 250 -50 l 1
 250 50 l 1
 200 50 l 1
 200 100 l 1
 150 100 l 1
 150 400 l 1
 50 400 l 1
 50 500 l 1
 150 500 l 1
 150 700 l 1
 250 700 l 1
 250 500 l 1
 450 500 l 1
 450 400 l 1
 250 400 l 1
 250 150 l 1
 300 150 l 1
 300 100 l 1
 400 100 l 1
 400 150 l 1
 450 150 l 1
 450 200 l 1
 550 200 l 1
 550 100 l 1
 500 100 l 1
 500 50 l 1
 450 50 l 1
 450 0 l 1
 350 0 l 1
 350 -100 l 1
 300 -100 l 1
 300 -150 l 1
 250 -150 l 1
 250 -200 l 1
 150 -200 l 1
EndSplineSet
EndChar

StartChar: periodcentered.loclCAT
Encoding: 1114115 -1 380
Width: 0
VWidth: 0
Flags: HMW
LayerCount: 2
Fore
SplineSet
-50 300 m 1
 -50 400 l 1
 50 400 l 1
 50 300 l 1
 -50 300 l 1
EndSplineSet
EndChar

StartChar: periodcentered.loclCAT.case
Encoding: 1114116 -1 381
Width: 0
VWidth: 0
Flags: HMW
LayerCount: 2
Fore
SplineSet
-250 300 m 1
 -250 400 l 1
 -150 400 l 1
 -150 300 l 1
 -250 300 l 1
EndSplineSet
EndChar

StartChar: Eng.loclNSM
Encoding: 1114118 -1 383
Width: 600
VWidth: 0
Flags: HMW
LayerCount: 2
Fore
SplineSet
250 -200 m 1
 250 -100 l 1
 400 -100 l 1
 400 -50 l 1
 450 -50 l 1
 450 200 l 1
 350 200 l 1
 350 250 l 1
 300 250 l 1
 300 300 l 1
 250 300 l 1
 250 350 l 1
 200 350 l 1
 200 400 l 1
 150 400 l 1
 150 0 l 1
 50 0 l 1
 50 700 l 1
 150 700 l 1
 150 500 l 1
 250 500 l 1
 250 450 l 1
 300 450 l 1
 300 400 l 1
 350 400 l 1
 350 350 l 1
 400 350 l 1
 400 300 l 1
 450 300 l 1
 450 700 l 1
 550 700 l 1
 550 -100 l 1
 500 -100 l 1
 500 -150 l 1
 450 -150 l 1
 450 -200 l 1
 250 -200 l 1
EndSplineSet
EndChar

StartChar: zero.zero
Encoding: 1114119 -1 384
Width: 600
Flags: HW
LayerCount: 2
Fore
SplineSet
450 0 m 1
 150 0 l 1
 150 50 l 1
 100 50 l 1
 100 100 l 1
 50 100 l 1
 50 600 l 1
 100 600 l 1
 100 650 l 1
 150 650 l 1
 150 700 l 1
 450 700 l 1
 450 650 l 1
 500 650 l 1
 500 600 l 1
 550 600 l 1
 550 100 l 1
 500 100 l 1
 500 50 l 1
 450 50 l 1
 450 0 l 1
200 100 m 1
 400 100 l 1
 400 150 l 1
 450 150 l 1
 450 550 l 1
 400 550 l 1
 400 600 l 1
 200 600 l 1
 200 550 l 1
 150 550 l 1
 150 150 l 1
 200 150 l 1
 200 100 l 1
EndSplineSet
EndChar

StartChar: jacute
Encoding: 1114120 -1 385
Width: 300
Flags: HW
LayerCount: 2
Fore
SplineSet
-50 400 m 1
 -50 500 l 1
 150 500 l 1
 150 -100 l 1
 50 -100 l 1
 50 -200 l 1
 -150 -200 l 1
 -150 -100 l 1
 50 -100 l 1
 50 400 l 1
 -50 400 l 1
EndSplineSet
Refer: 226 769 N 1 0 0 1 100 0 2
EndChar
